<?xml version="1.0" standalone="no"?>
<!DOCTYPE svg PUBLIC "-//W3C//DTD SVG 1.1//EN" "http://www.w3.org/Graphics/SVG/1.1/DTD/svg11.dtd" >
<svg xmlns="http://www.w3.org/2000/svg" xmlns:xlink="http://www.w3.org/1999/xlink" version="1.1">
<metadata></metadata>
<defs>
<font id="arima_koshibold" horiz-adv-x="1228" >
<font-face units-per-em="2048" ascent="1638" descent="-410" />
<missing-glyph horiz-adv-x="436" />
<glyph unicode="&#xfb01;" horiz-adv-x="1206" d="M23 924l2 67q1 32 21.5 49t51.5 17h64v18q0 78 14 142.5t49 122.5t89 97t138.5 62t194.5 23q201 0 311.5 -48.5t110.5 -136.5q0 -58 -49.5 -96.5t-122.5 -38.5q-90 0 -129 45q37 37 37 103q0 43 -47 64.5t-113 21.5q-30 0 -55 -4t-44 -15t-34 -21.5t-26 -31t-18.5 -35.5 t-12.5 -44.5t-7.5 -48t-4 -54.5t-1.5 -56.5v-62.5v-6h25q21 0 97 2.5t89 5.5l-2 -66q-1 -32 -21.5 -49.5t-51.5 -17.5h-136v-633q0 -161 41 -266q-72 -64 -159 -64q-70 0 -116 40t-46 106v817h-17q-68 0 -122 -8zM758 1028q77 62 157 62q71 0 115.5 -39t44.5 -107l2 -645 q0 -166 41 -266q-70 -64 -162 -64q-68 0 -112.5 40t-44.5 106v645q0 160 -41 268z" />
<glyph unicode="&#xfb02;" horiz-adv-x="1296" d="M23 924l2 67q1 32 21.5 49t51.5 17h64v33q0 77 14.5 140.5t48.5 118.5t87.5 92.5t134.5 59t186 21.5q231 0 353 -79t122 -222v-924q0 -109 72 -109q43 0 59 27q29 -42 29 -88q0 -63 -55.5 -105t-133.5 -42q-121 0 -186.5 77.5t-65.5 214.5v936q0 120 -48.5 174t-145.5 54 q-31 0 -56.5 -6.5t-44.5 -15.5t-33.5 -28t-24 -34t-16 -45t-9.5 -49t-5 -58t-2 -60v-65v-18h25q20 0 87.5 2.5t80.5 5.5l-2 -66q-1 -33 -21 -50t-51 -17h-119v-633q0 -161 41 -266q-72 -64 -159 -64q-70 0 -116 40t-46 106v817h-17q-68 0 -122 -8z" />
<glyph horiz-adv-x="0" />
<glyph horiz-adv-x="682" />
<glyph unicode=" "  horiz-adv-x="436" />
<glyph unicode="&#x09;" horiz-adv-x="436" />
<glyph unicode="&#xa0;" horiz-adv-x="436" />
<glyph unicode="!" horiz-adv-x="679" d="M176 1470l76 -1056h190l62 1056q-169 54 -328 0zM178 129q0 67 46 113.5t114 46.5q66 0 112 -46.5t46 -113.5q0 -66 -46 -112t-112 -46q-67 0 -113.5 46t-46.5 112z" />
<glyph unicode="&#x22;" horiz-adv-x="741" d="M82 1485l61 -395h117l74 395q-53 19 -123.5 19t-128.5 -19zM410 1485l61 -395h117l74 395q-52 19 -123 19t-129 -19z" />
<glyph unicode="#" horiz-adv-x="1257" d="M-8 418l24 160h293l45 249h-297l25 160h301l80 443h184l-80 -443h226l79 443h185l-80 -443h299l-25 -160h-303l-45 -249h307l-24 -160h-312l-75 -418h-185l76 418h-225l-76 -418h-184l76 418h-289zM494 578h225l45 249h-225z" />
<glyph unicode="$" horiz-adv-x="1163" d="M70 258q0 80 55 124.5t180 25.5q-11 -45 0 -109q14 -85 77.5 -150.5t174.5 -76.5l-2 512l-12 6q-90 51 -146 87.5t-114.5 84.5t-90 93.5t-51.5 105.5t-20 131q0 89 33.5 157.5t93.5 111.5t136.5 66.5t168.5 28.5q-3 91 -12 131q25 17 49 17q47 0 47 -45v-101 q190 -5 302 -65t112 -172q0 -57 -34.5 -93.5t-113.5 -37.5q-34 -3 -78 4q3 67 -18 123q-15 54 -57 92t-113 49l2 -469l61 -35q49 -27 82.5 -46.5t79 -50t76 -57t63 -64t52.5 -75t32.5 -85t12.5 -99.5q0 -162 -118 -274t-339 -130q0 -109 12 -153q-21 -17 -49 -17 q-47 0 -47 45v121q-239 0 -363 80t-124 209zM385 1192q0 -74 37 -129.5t133 -120.5l-2 418q-70 -5 -119 -45t-49 -123zM639 532l2 -460q81 11 130.5 62.5t49.5 141.5q0 81 -43 138.5t-139 117.5z" />
<glyph unicode="%" horiz-adv-x="2269" d="M86 1053q0 200 104 302.5t308 102.5q205 0 308 -102.5t103 -302.5q0 -202 -103 -306t-308 -104q-204 0 -308 104.5t-104 305.5zM346 1053q0 -176 35.5 -254t118.5 -78q79 0 115 78.5t36 253.5q0 173 -35.5 250t-115.5 77q-83 0 -118.5 -76.5t-35.5 -250.5zM727 18 l647 1440q49 7 94.5 -6.5t71.5 -50.5l-653 -1430q-94 -16 -160 47zM1360 387q0 200 104.5 304t307.5 104q204 0 307.5 -103.5t103.5 -304.5q0 -407 -411 -407q-204 0 -308 103t-104 304zM1620 387q0 -176 35.5 -253t118.5 -77q80 0 115.5 78t35.5 252q0 173 -35.5 250.5 t-115.5 77.5q-83 0 -118.5 -77t-35.5 -251z" />
<glyph unicode="&#x26;" horiz-adv-x="1867" d="M109 600q0 100 35 189.5t100.5 158.5t168 109.5t228.5 40.5q181 0 278 -79t97 -208q0 -155 -156 -303q194 150 465 434q-80 159 -236.5 250.5t-353.5 85.5q0 90 47 139t164 49q168 0 305.5 -98t225.5 -260q153 178 225 293q22 0 48 -10.5t49 -34.5t33.5 -57.5t-5 -87 t-60.5 -115.5q-69 -100 -204 -222q24 -102 24 -202q0 -206 -95 -366.5t-264 -248.5t-384 -88q-334 0 -534.5 173t-200.5 458zM424 621q0 -110 29.5 -206t84.5 -168.5t140.5 -114.5t191.5 -42q103 0 198 40t167.5 111.5t116 177.5t43.5 230q0 43 -6 86q-181 -132 -390.5 -239 t-400.5 -164l-20 84q99 91 151.5 179t52.5 189q0 88 -36.5 140.5t-104.5 52.5q-92 0 -154.5 -94t-62.5 -262z" />
<glyph unicode="'" horiz-adv-x="415" d="M82 1485l61 -395h117l74 395q-53 19 -123.5 19t-128.5 -19z" />
<glyph unicode="(" horiz-adv-x="927" d="M213 584q0 139 21 263t56.5 217.5t82.5 172t98 131.5t104 90t99.5 53.5t85.5 16.5q32 0 53.5 -11.5t28 -22.5t6.5 -19q-188 -170 -264 -378t-74 -511q3 -298 82.5 -515t255.5 -372q0 -9 -6.5 -20t-28 -22t-53.5 -11q-47 0 -103 24t-118.5 70.5t-120 125t-103.5 178 t-74 240t-28 300.5z" />
<glyph unicode=")" horiz-adv-x="927" d="M80 -301q176 155 255.5 372t82.5 515q2 303 -74 511t-264 378q0 8 6.5 19t28 22.5t53.5 11.5q39 0 85.5 -16.5t99.5 -53.5t104 -90t98 -131.5t82.5 -172t56.5 -217.5t21 -263q0 -160 -28 -300.5t-74 -240t-103.5 -178t-120 -125t-118.5 -70.5t-103 -24q-32 0 -53.5 11 t-28 22t-6.5 20z" />
<glyph unicode="*" horiz-adv-x="1021" d="M45 1108q0 49 33 83t96 34q64 0 122 -35.5t101 -95.5q54 37 62 45q-84 100 -84 198q0 62 34 95.5t101 33.5q135 0 135 -129q0 -97 -70 -190q23 -23 66 -53q46 60 101.5 95.5t111.5 35.5q53 0 83 -30t30 -85q0 -68 -47.5 -104.5t-126.5 -36.5q-62 0 -115 20 q-25 -49 -35 -84q85 -30 139 -90.5t54 -122.5q0 -49 -33.5 -79.5t-85.5 -30.5q-54 0 -95 37.5t-61 92t-20 113.5v15q-10 2 -33 2q-19 0 -27 -2q-2 -103 -60.5 -184t-150.5 -81q-48 0 -82 25t-34 78q0 76 65 141.5t166 93.5q-5 24 -27 78q-65 -20 -120 -20q-81 0 -137 36 t-56 101zM154 1106q0 -27 24.5 -42t65.5 -15q31 0 73 10q-60 80 -127 80q-17 0 -26.5 -9.5t-9.5 -23.5zM260 686q0 -14 9 -22.5t24 -8.5q37 0 64 50t32 114q-57 -22 -93 -58.5t-36 -74.5zM438 1026q26 -58 33 -98q12 2 33 2q19 0 51 -4q12 42 41 98q-20 11 -82 57 q-36 -31 -76 -55zM483 1339q0 -63 39 -127q41 59 41 119q0 25 -11 39t-30 14q-39 0 -39 -45zM631 817q2 -56 23.5 -104.5t62.5 -48.5q15 0 26 8.5t11 21.5q0 32 -34.5 66.5t-88.5 56.5zM723 1057q42 -10 72 -10q90 0 90 55q0 14 -10.5 23.5t-28.5 9.5q-62 0 -123 -78z" />
<glyph unicode="+" horiz-adv-x="1124" d="M154 635q-27 73 0 147h333v336q74 27 148 0v-336h336q27 -74 0 -147h-336v-336q-74 -24 -148 0v336h-333z" />
<glyph unicode="," horiz-adv-x="649" d="M164 129q0 66 46.5 113t115.5 47q68 0 113.5 -48t45.5 -147q0 -165 -168 -319q-46 5 -90 49q76 89 76 162q0 31 -10.5 55.5t-22.5 37.5t-36.5 25t-34.5 15t-35 10z" />
<glyph unicode="-" horiz-adv-x="817" d="M72 449v161h671v-161h-671z" />
<glyph unicode="." horiz-adv-x="645" d="M164 129q0 67 46 113.5t114 46.5q66 0 111.5 -46.5t45.5 -113.5q0 -66 -45.5 -112t-111.5 -46q-67 0 -113.5 46t-46.5 112z" />
<glyph unicode="/" horiz-adv-x="1034" d="M4 -291l666 1792h282l-667 -1792h-281z" />
<glyph unicode="0" horiz-adv-x="1312" d="M111 715q0 370 137.5 556.5t406.5 186.5t407 -187t138 -556q0 -370 -138 -557t-407 -187t-406.5 187t-137.5 557zM426 715q0 -340 54.5 -493.5t174.5 -153.5t175 154t55 493t-55 493t-175 154t-174.5 -153.5t-54.5 -493.5z" />
<glyph unicode="1" horiz-adv-x="944" d="M54.5 1115.5q1.5 19.5 0.5 29.5v4q6 2 94.5 60.5t190.5 127.5t119 80q49 29 110 29q71 0 115.5 -38.5t44.5 -104.5v-1004q0 -161 41 -266q-64 -64 -160 -64q-69 0 -113 40t-44 106v1001q0 41 -7 92q-64 -86 -143.5 -160.5t-128.5 -74.5q-35 0 -60.5 15t-36 36.5 t-17.5 46.5t-5.5 44.5z" />
<glyph unicode="2" horiz-adv-x="1153" d="M78 61.5q-11 39.5 2 88.5q19 22 69.5 65.5t108.5 93.5t127 114t131.5 138t114.5 154.5t83 175t31 188.5q0 121 -49.5 205t-150.5 84q-66 0 -112 -36t-68 -96.5t-30.5 -120t-8.5 -126.5q-69 0 -118 17.5t-72.5 46.5t-33.5 57.5t-10 60.5q0 120 130.5 203.5t342.5 83.5 q140 0 246 -41.5t171 -133t65 -224.5q0 -105 -36 -208.5t-90.5 -184.5t-132.5 -160.5t-147.5 -134t-151 -107t-127.5 -77.5t-92 -48q161 5 424 56.5t350 103.5q35 -25 48 -97.5t-4.5 -136.5t-59.5 -65h-913q-26 22 -37 61.5z" />
<glyph unicode="3" horiz-adv-x="1159" d="M47 217q0 25 8 48.5t28 49t63 41t104 15.5l4.5 -48t9 -54t17.5 -60.5t30.5 -53.5t47 -48.5t67.5 -30.5t92 -13q117 0 189.5 84t72.5 220q0 73 -26 131.5t-70 96t-105.5 63t-128 36t-141.5 11.5l2 98q111 5 194 36.5t128.5 80t67.5 103t22 114.5q0 231 -184 231 q-64 0 -109.5 -27.5t-68 -74.5t-32 -95t-10.5 -104q-53 -1 -92.5 9t-60.5 23.5t-33.5 33t-16 34t-3.5 29.5q0 112 117.5 187t330.5 75q52 0 103 -6.5t106.5 -20.5t101.5 -40t83.5 -62t59 -90t21.5 -121q0 -127 -98 -224t-254 -140q410 -69 410 -361q0 -193 -152 -305.5 t-405 -112.5q-120 0 -212.5 18.5t-143 45t-82.5 61.5t-42 63t-10 54z" />
<glyph unicode="4" horiz-adv-x="1275" d="M63.5 400q-23.5 55 8.5 96l624 884q18 26 65 47t91 21q70 0 115 -39.5t45 -105.5l2 -803q101 10 190 35q20 -46 16 -97.5t-32 -95.5h-174v-43q0 -166 41 -266q-70 -64 -160 -64q-69 0 -114.5 40t-45.5 106v227h-592q-56 3 -79.5 58zM240 494h495v710z" />
<glyph unicode="5" horiz-adv-x="1171" d="M106 293q0 78 53.5 120.5t145.5 32.5q0 -46 6 -91.5t23 -94.5t43 -85.5t70 -60.5t100 -24q80 0 133.5 45.5t76.5 118.5t23 172q0 136 -72 227.5t-210 91.5q-55 0 -114 -6.5t-102.5 -13.5t-52.5 -8q-27 0 -41 14.5t-14 38.5l25 545q1 49 35 80.5t85 31.5q282 0 421.5 5 t258.5 22q17 -40 14 -91.5t-30 -100.5t-65 -64q-342 0 -517 19l-18 -369q137 20 227 20q228 0 357 -113t129 -311q0 -101 -31 -182t-82.5 -133.5t-121 -88t-142.5 -50.5t-152 -15q-112 0 -203 30t-145.5 78t-83.5 102.5t-29 107.5z" />
<glyph unicode="6" horiz-adv-x="1216" d="M111 655q0 397 142.5 599t455.5 202q85 0 160 -16.5t129.5 -58t54.5 -101.5q0 -49 -38 -97.5t-63 -56.5q-66 116 -129 165.5t-131 49.5q-77 0 -130 -42.5t-81 -125.5t-40.5 -179.5t-14.5 -231.5q105 121 285 121q68 0 130.5 -17t116.5 -53t94 -87t62.5 -123.5 t22.5 -158.5q0 -211 -130.5 -340t-385.5 -129q-89 0 -160 16.5t-138.5 62t-112.5 120t-72 196.5t-27 285zM424 588q1 -92 6.5 -162t19.5 -139.5t36.5 -114t60 -72.5t88.5 -28q194 0 194 385q0 150 -40.5 225.5t-139.5 75.5q-74 0 -132.5 -42t-92.5 -128z" />
<glyph unicode="7" horiz-adv-x="1050" d="M63 1313q-9 89 15 133q185 -16 401 -16h492q9 -25 11.5 -58.5t-7 -74.5t-33.5 -70q-104 -146 -191.5 -385.5t-132.5 -464t-45 -377.5q-148 -29 -280 4q12 124 50 292t93 344t133.5 336.5t159.5 246.5q-49 -9 -105 -15t-95 -9.5t-110.5 -5t-96.5 -1.5h-113h-105 q-32 32 -41 121z" />
<glyph unicode="8" horiz-adv-x="1282" d="M109 332q0 135 98.5 245.5t259.5 137.5q-48 29 -85.5 56t-78 65.5t-67.5 78.5t-44.5 91.5t-17.5 107.5q0 64 25 122.5t76.5 109.5t145 81.5t216.5 30.5q98 0 179.5 -19.5t137 -52t93.5 -76t55.5 -91t17.5 -97.5q0 -121 -93 -222t-247 -122q408 -199 408 -444 q0 -52 -16.5 -101.5t-57 -98t-101 -84t-155.5 -57.5t-213 -22q-119 0 -214 22t-154 58t-98 84.5t-54.5 96.5t-15.5 100zM418 352q0 -149 67 -219t168 -70q103 0 164.5 69t61.5 171q0 50 -16 94t-42 78t-70.5 69t-88.5 61.5t-109 60.5q-135 -114 -135 -314zM467 1139 q0 -68 19.5 -122t56 -91.5t72.5 -61.5t85 -47q42 29 69.5 67t39 82.5t15 78t3.5 77.5q-1 113 -51 176.5t-131 63.5q-79 0 -128.5 -61.5t-49.5 -161.5z" />
<glyph unicode="9" horiz-adv-x="1243" d="M119 993q0 210 127.5 337.5t376.5 127.5q93 0 167.5 -20t139 -68.5t108 -125.5t68 -194.5t24.5 -271.5q0 -404 -140.5 -605.5t-452.5 -201.5q-97 0 -180 17.5t-143 60.5t-64 105q-3 52 35 101.5t65 57.5q79 -124 151.5 -176.5t151.5 -52.5q52 0 92.5 19.5t68 58.5t47 89 t31 119t16.5 140.5t7 161.5q-105 -121 -280 -121q-84 0 -158.5 28t-132.5 81t-91.5 139t-33.5 194zM416 981q0 -151 40 -227t138 -76q72 0 130.5 41.5t92.5 126.5q-1 76 -4.5 135.5t-12 121.5t-23.5 106t-37 80.5t-55 54.5t-75 18q-194 0 -194 -381z" />
<glyph unicode=":" horiz-adv-x="577" d="M131 129q0 67 46.5 113.5t113.5 46.5q66 0 112 -46.5t46 -113.5q0 -66 -46 -112t-112 -46q-67 0 -113.5 46t-46.5 112zM131 885q0 67 46 113t114 46q66 0 112 -46t46 -113q0 -66 -46 -112t-112 -46q-67 0 -113.5 46t-46.5 112z" />
<glyph unicode=";" horiz-adv-x="581" d="M131 129q0 66 46.5 113t115.5 47q68 0 114 -48t46 -147q0 -165 -168 -319q-46 5 -90 49q75 88 75 162q0 31 -10.5 55.5t-22.5 37.5t-36.5 25t-34.5 15t-35 10zM133 885q0 67 46 113t114 46q66 0 112 -46t46 -113q0 -66 -46 -112t-112 -46q-67 0 -113.5 46t-46.5 112z" />
<glyph unicode="&#x3c;" horiz-adv-x="1019" d="M92 696q-16 23 0 45l733 363q25 13 48 1.5t32.5 -45.5t-4.5 -91l-582 -250l582 -250q23 -75 -2.5 -117t-73.5 -18z" />
<glyph unicode="=" horiz-adv-x="1107" d="M145 424q-27 74 0 147h818q27 -73 0 -147h-818zM145 825q-27 74 0 148h818q27 -74 0 -148h-818z" />
<glyph unicode="&#x3e;" horiz-adv-x="1021" d="M111.5 1028.5q0.5 27.5 8.5 44t20 27.5t26.5 10.5t28.5 -6.5l733 -363q16 -23 0 -45l-733 -362q-48 -24 -73.5 18t-2.5 117l581 250l-581 250q-8 32 -7.5 59.5z" />
<glyph unicode="?" horiz-adv-x="1075" d="M27 1225q0 121 127.5 198.5t341.5 77.5q112 0 203.5 -22.5t164 -69.5t112.5 -128t40 -191q0 -93 -30.5 -170t-78.5 -127.5t-110.5 -86t-123.5 -52t-120 -19.5v-223h-205v327q162 6 264.5 99t102.5 266q0 82 -23.5 147.5t-79.5 108.5t-137 43q-213 0 -217 -324 q-131 0 -181 40t-50 106zM274 129q0 67 46 113.5t114 46.5q66 0 112 -46.5t46 -113.5q0 -66 -46 -112t-112 -46q-67 0 -113.5 46t-46.5 112z" />
<glyph unicode="@" horiz-adv-x="1824" d="M80 528q0 104 23 203.5t68 193.5t119 172.5t170.5 137.5t228 92t284.5 33q163 0 295 -50t216 -129t141 -183.5t80.5 -207.5t23.5 -206q0 -130 -28.5 -229.5t-79.5 -159.5t-116 -90.5t-141 -30.5q-84 0 -155 50.5t-93 123.5q-83 -146 -229 -146q-61 0 -110.5 14.5 t-82.5 37.5t-57.5 57t-38 67.5t-21.5 75.5t-10 74.5t-2 69.5q0 235 101.5 367t296.5 132q87 0 154.5 -23t107.5 -59.5t65.5 -87.5t34.5 -101.5t8 -107.5l-2 -212q-2 -88 21.5 -146.5t77.5 -58.5q68 0 110 96t43 289q0 60 -8.5 121.5t-30 126t-53.5 122t-81.5 109.5 t-110.5 89t-143.5 59t-178.5 22q-132 0 -240 -38.5t-181.5 -104.5t-124 -156t-73 -190t-22.5 -209q0 -155 47.5 -282t125.5 -206t179 -116.5t209 -24.5q40 -51 4 -92t-129 -41q-80 -1 -169 23.5t-183 83.5t-169 143.5t-123 215.5t-48 287zM676 500q0 -45 3 -80.5t14.5 -80.5 t31.5 -74.5t57.5 -50.5t89.5 -21q99 0 160.5 121t61.5 309q0 138 -38.5 209t-133.5 71q-120 0 -183 -101.5t-63 -301.5z" />
<glyph unicode="A" horiz-adv-x="1286" d="M35 90q0 57 28 146l398 1185q118 39 241 39q129 0 154 -92l356 -1200q25 -88 68 -133q-55 -64 -168 -64q-68 0 -114 28.5t-58 82.5l-88 334h-446l-64 -252q-14 -58 -14 -94q0 -46 22 -68q-79 -31 -155 -31q-84 0 -122 28t-38 91zM442 567h371l-188 725z" />
<glyph unicode="B" horiz-adv-x="1234" d="M129 1395q132 63 385 63q276 0 421.5 -82t145.5 -262q0 -127 -70 -218.5t-192 -123.5q151 -21 241.5 -115t90.5 -249q0 -201 -152 -304.5t-434 -103.5h-231q-72 0 -118 39t-46 106v983q0 159 -41 267zM457 98h96q77 0 133.5 23t89.5 65t48.5 95.5t15.5 119.5 q0 90 -21 152.5t-60.5 96t-88 47.5t-113.5 14h-100v-613zM457 809h94h9q110 1 163 73q55 76 55 208q0 129 -60 199.5t-200 70.5h-61v-551z" />
<glyph unicode="C" horiz-adv-x="1267" d="M96 715q0 354 158 548.5t442 194.5q85 0 166.5 -16.5t148.5 -46.5t108.5 -78.5t41.5 -106.5q-1 -68 -61 -116q-59 -48 -164 -47h-4q-29 315 -232 315q-149 0 -218.5 -159.5t-69.5 -487.5t67.5 -487.5t212.5 -159.5q221 0 264 340q23 3 45 3q65 -1 121 -29q74 -38 74 -118 q0 -94 -79 -162.5t-194 -99.5t-247 -31q-274 0 -427 195t-153 549z" />
<glyph unicode="D" horiz-adv-x="1339" d="M129 1432q127 18 459 18q316 0 485.5 -181.5t169.5 -533.5q0 -376 -164.5 -555.5t-474.5 -179.5h-278q-77 0 -121.5 38.5t-44.5 104.5l-2 985v42v52.5t-1.5 51t-4.5 57.5t-9 50.5t-14 50.5zM444 98h144q180 0 260 141t80 476q0 333 -81.5 485t-258.5 152h-144v-1254z" />
<glyph unicode="E" horiz-adv-x="1134" d="M129 1358q52 44 105.5 58t154.5 14h592q37 0 44 -55q2 -13 2 -26q0 -43 -18 -91q-23 -62 -59 -78q-224 105 -495 114v-479h434q10 -34 9.5 -72t-9.5 -79h-432v-529q132 4 296 41.5t248 79.5q35 -22 49 -84q6 -27 5 -53q1 -33 -9 -65q-18 -54 -61 -54h-651q-72 0 -118 39 t-46 106v947q0 158 -41 266z" />
<glyph unicode="F" horiz-adv-x="1093" d="M129 1358q52 44 105.5 58t154.5 14h592q37 0 44 -55q2 -13 2 -26q0 -43 -18 -91q-23 -62 -59 -78q-224 105 -495 114v-481h434q8 -32 8.5 -70.5t-8.5 -83.5h-432v-360q0 -166 41 -266q-70 -64 -164 -64q-72 0 -118 40t-46 106v977q0 158 -41 266z" />
<glyph unicode="G" horiz-adv-x="1343" d="M96 715q0 353 167 548t466 195q110 0 211.5 -27.5t171.5 -85.5t70 -133q0 -68 -61 -117q-60 -48 -165 -48h-4q-29 315 -219 315q-167 0 -244 -159.5t-77 -487.5t75.5 -487.5t237.5 -159.5q56 0 99 25.5t67.5 64t40 92.5t21 103t5.5 102q0 217 -120 276q19 41 66 62.5 t104 21.5q110 0 175.5 -73.5t65.5 -215.5q0 -139 -44.5 -247.5t-120.5 -174.5t-171.5 -99.5t-203.5 -33.5q-291 0 -452 195t-161 549z" />
<glyph unicode="H" horiz-adv-x="1435" d="M129 1395q66 61 164 61q71 0 117.5 -38.5t46.5 -104.5v-492h522v307q0 159 -41 267q66 61 164 61q71 0 117.5 -38.5t46.5 -104.5v-1014q0 -166 41 -266q-70 -64 -164 -64q-72 0 -118 40t-46 106v555h-522v-371q0 -166 41 -266q-70 -64 -164 -64q-72 0 -118 40t-46 106 v1013q0 159 -41 267z" />
<glyph unicode="I" horiz-adv-x="626" d="M129 1395q66 61 164 61q71 0 117.5 -38.5t46.5 -104.5v-1014q0 -166 41 -266q-70 -64 -164 -64q-72 0 -118 40t-46 106v1013q0 159 -41 267z" />
<glyph unicode="J" horiz-adv-x="1021" d="M76 211q0 76 41 129t121 53q85 0 120 -61q-32 -60 -32 -129q0 -55 31.5 -95t80.5 -40q43 0 71 23.5t41.5 69.5t18 94.5t4.5 117.5v837q0 102 19 133q-15 1 -78.5 3.5t-83.5 3.5q-43 0 -72.5 -19.5t-29.5 -64.5q0 -84 65 -123q-42 -33 -114 -33q-67 0 -117.5 45t-50.5 125 q0 84 62 131t179 47q39 0 139.5 -5.5t165.5 -6.5q101 0 215 12q-12 -62 -12 -162v-888q0 -437 -422 -437q-187 0 -274.5 69.5t-87.5 170.5z" />
<glyph unicode="K" horiz-adv-x="1271" d="M129 1395q66 61 164 61q71 0 116.5 -38.5t45.5 -104.5l2 -568q6 1 14 3t17 5.5t14 4.5q82 26 148.5 84t106 129.5t60.5 145.5t21 140q0 103 -37 164q64 25 117 25q196 0 196 -207q0 -97 -43 -191t-143 -183t-246 -146q115 -12 179.5 -58t103.5 -133l90 -209 q38 -81 61.5 -109.5t57.5 -31.5q22 -3 49 15q16 -46 16 -78q0 -66 -49.5 -111t-132.5 -45q-51 0 -93.5 20.5t-70 47.5t-54 75t-39.5 80.5t-32 87.5l-55 168q-11 32 -21.5 55.5t-30 53t-42 48.5t-57 32.5t-75.5 13.5h-30v-342q0 -166 41 -266q-70 -64 -164 -64q-72 0 -118 40 t-46 106v1013q0 159 -41 267z" />
<glyph unicode="L" horiz-adv-x="1040" d="M129 1395q66 61 164 61q71 0 116.5 -38.5t45.5 -104.5l2 -1161q131 3 275.5 38t223.5 82q34 -24 48 -90q6 -29 6 -56q0 -35 -10 -68q-18 -58 -60 -58h-606q-72 0 -118 39t-46 106v983q0 159 -41 267z" />
<glyph unicode="M" horiz-adv-x="1742" d="M152 1421q38 35 198 35q99 0 150 -51q357 -976 368 -1006q275 800 344 1031q73 26 183 26q64 0 117 -17.5t61 -39.5v-1100q0 -161 41 -266q-70 -64 -164 -64q-67 0 -110.5 40t-43.5 106l-2 995l-338 -950q-85 -29 -156 -29q-57 0 -106 19q-212 450 -377 968l2 -821 q0 -185 41 -293q-38 -35 -100 -35q-94 0 -94 113v1053q0 188 -14 286z" />
<glyph unicode="N" horiz-adv-x="1439" d="M129 6q41 108 41 293v831q0 173 -14 291q22 27 100 34q20 2 36 2q46 0 60 -15q86 -122 276.5 -368t322.5 -429t173 -278l-73 901q-1 15 -1 29q0 63 28 103q36 50 108 54h11q61 0 106 -31q-33 -92 -33 -268l-2 -862q0 -189 14 -287q-22 -25 -90 -33q-20 -2 -37 -2 q-41 0 -65 13q-335 391 -507 629t-257 405l61 -885q1 -8 1 -16q0 -59 -40 -101q-46 -47 -102 -47q-64 0 -117 37z" />
<glyph unicode="O" horiz-adv-x="1363" d="M96 715q0 369 148 556t438 187t438 -187t148 -556q0 -370 -148 -557t-438 -187t-438 187t-148 557zM412 715q0 -339 64.5 -493t205.5 -154q142 0 206 153.5t64 493.5t-64 493.5t-206 153.5q-141 0 -205.5 -154t-64.5 -493z" />
<glyph unicode="P" horiz-adv-x="1200" d="M129 1395q132 63 381 63q309 0 467 -101.5t158 -322.5q0 -230 -164.5 -355.5t-466.5 -125.5h-47v-270q0 -157 41 -250q-70 -64 -164 -64q-72 0 -118 40t-46 106v1013q0 159 -41 267zM457 649h32q92 0 158 26.5t103 76.5t54 114.5t17 147.5q0 346 -305 346q-43 0 -59 -2 v-709z" />
<glyph unicode="Q" horiz-adv-x="1384" d="M96 713q0 367 155 556t439 189q285 0 439.5 -188.5t154.5 -554.5q0 -348 -162 -546t-434 -198q-66 0 -117 15q65 -55 159 -83t190 -28q107 0 185.5 31t100.5 90q69 -11 108.5 -51.5t39.5 -106.5q0 -74 -62 -127t-166 -53q-127 0 -298.5 71t-317.5 177q-76 54 -135 109 t-113 128t-89.5 154.5t-56 187.5t-20.5 228zM426 666q0 -110 6 -194.5t23.5 -163t45.5 -129.5t74.5 -81t108.5 -30q140 0 205 153.5t65 495.5q0 337 -64 491t-202 154q-75 0 -126 -43t-80.5 -133t-42.5 -215.5t-13 -304.5z" />
<glyph unicode="R" horiz-adv-x="1290" d="M129 1395q132 63 391 63q301 0 453.5 -88.5t152.5 -282.5q0 -150 -86 -253t-237 -142q69 -20 114 -62t82 -108l84 -190q31 -74 58.5 -108.5t58.5 -35.5q26 0 49 17q17 -44 17 -78q0 -74 -55 -115t-113 -41q-29 0 -54.5 5t-46 11.5t-40 21.5t-33 27t-29.5 37t-26 41.5 t-25 51t-23.5 55t-25.5 62.5l-58 155q-13 32 -21 50.5t-22.5 44.5t-29.5 40.5t-35.5 30t-48 22.5t-60.5 7l-63 2v-352q0 -157 41 -250q-70 -64 -164 -64q-72 0 -118 40t-46 106v1013q0 159 -41 267zM457 733q33 -3 57 -3q12 0 21 1q136 4 207 98t71 240q0 133 -64 213 t-204 80q-63 0 -88 -2v-627z" />
<glyph unicode="S" horiz-adv-x="1163" d="M70 258q0 80 55 124q39 31 111 32q31 0 69 -6q-6 -22 -5.5 -49.5t5.5 -59.5q15 -94 89.5 -161.5t205.5 -67.5q97 0 159 52.5t62 153.5q0 51 -16.5 92t-55 79t-84.5 69t-122 74q-90 51 -146 87.5t-114.5 84.5t-90 93.5t-51.5 105.5t-20 131q0 96 39 168t108 114.5 t154.5 63t187.5 20.5q201 0 321 -60.5t120 -176.5q0 -57 -34.5 -93.5t-113.5 -37.5q-10 -1 -21 -1q-26 0 -57 5v17q0 57 -18 106q-19 65 -75 105t-154 40q-34 0 -66 -8.5t-61.5 -26.5t-47.5 -53t-18 -82q0 -95 64.5 -165t250.5 -173q49 -27 82.5 -46.5t79 -50t76 -57t63 -64 t52.5 -75t32.5 -85t12.5 -99.5q0 -85 -34 -158t-99 -129.5t-169.5 -88.5t-236.5 -32q-241 0 -365 80t-124 209z" />
<glyph unicode="T" horiz-adv-x="1140" d="M26 1375q7 55 44 55h1003q37 0 43 -55q1 -12 2 -25q0 -44 -18 -92q-23 -62 -60 -78q-174 95 -327 135l2 -1016q0 -166 41 -266q-70 -64 -164 -64q-72 0 -118 40t-46 106v1198q-145 -35 -328 -133q-36 16 -58 78q-17 47 -18 91q0 13 2 26z" />
<glyph unicode="U" horiz-adv-x="1384" d="M123 1395q66 61 164 61q70 0 116 -38.5t46 -104.5v-699q0 -289 57.5 -417.5t185.5 -128.5q134 0 197 137t63 409v514q0 159 -41 267q66 61 162 61q70 0 116 -38.5t46 -104.5v-684q0 -658 -543 -658q-263 0 -395.5 160t-132.5 498v499q0 159 -41 267z" />
<glyph unicode="V" horiz-adv-x="1253" d="M6 1397q57 61 170 61q156 0 182 -108l291 -1172l262 1090q15 58 15 92q0 46 -21 70q72 28 154 28q85 0 122.5 -27.5t37.5 -89.5q0 -53 -29 -145l-389 -1188q-102 -39 -191 -39q-153 0 -176 78l-360 1217q-25 88 -68 133z" />
<glyph unicode="W" horiz-adv-x="1970" d="M29 1397q57 61 170 61q162 0 182 -108l229 -1149l217 903q8 36 8 68q0 52 -20 94q41 21 98.5 33t104.5 12q58 0 97 -20t48 -58l252 -1030l197 1057q1 5 6.5 40.5t5.5 53.5q0 42 -20 69q85 29 153 29q85 0 123 -28q37 -27 37 -86q0 -48 -29 -148l-325 -1182 q-100 -39 -191 -39q-142 0 -162 78l-219 905l-237 -944q-102 -39 -185 -39q-159 0 -176 78l-297 1217q-19 82 -67 133z" />
<glyph unicode="X" horiz-adv-x="1310" d="M47 143q68 19 116 60.5t97 109.5l262 367l-239 448q-40 70 -78 70q-23 0 -42 -16.5t-24 -38.5q-80 41 -80 131q0 73 51.5 123.5t159.5 50.5q106 0 170 -57t131 -189l138 -272l247 434q47 84 140 84q69 0 104.5 -40.5t44.5 -131.5q-69 -19 -118 -60.5t-95 -107.5 l-241 -336l260 -481q37 -70 84 -70q19 0 37 16.5t22 38.5q35 -16 58.5 -50t23.5 -76q0 -71 -62 -125t-161 -54q-53 0 -94 16t-75.5 51.5t-60 74.5t-59.5 104l-152 291l-276 -453q-26 -41 -58 -62.5t-83 -21.5q-70 0 -105 41.5t-43 130.5z" />
<glyph unicode="Y" d="M8 1362q29 31 83 59.5t120 28.5q79 0 120 -38.5t79 -121.5l260 -565l237 530q23 50 23 91q0 42 -29 75q74 29 162 29q65 0 97 -34.5t34 -86.5q0 -69 -68 -174l-370 -618v-238q0 -161 41 -266q-23 -23 -66.5 -43.5t-95.5 -20.5q-72 0 -118 40t-46 106v424q-18 25 -49 84 l-309 596q-43 83 -105 143z" />
<glyph unicode="Z" horiz-adv-x="1222" d="M82 1202q0 108 90 174q82 60 240 61q15 0 30 -1l416 -15q20 -1 39 -1q127 0 197 24l34 -84q0 -72 -14 -119t-57 -100l-713 -922l436 31q64 4 108.5 27.5t63.5 54.5q25 36 25 78q0 17 -4 34q34 -6 67 -22q63 -25 99.5 -77t36.5 -122q0 -106 -82 -168q-78 -59 -225 -59h-15 l-541 14q-21 1 -38 1q-36 0 -60 -3q-36 -4 -88 -22l-37 67q0 75 14 123.5t56 99.5l702 936l-395 -30q-123 -7 -160 -72q-22 -41 -22 -79q0 -20 6 -38q-76 13 -129 54q-36 24 -58 64.5t-22 90.5z" />
<glyph unicode="[" horiz-adv-x="765" d="M172 -350v1861h424v-127h-160v-1607h160v-127h-424z" />
<glyph unicode="\" horiz-adv-x="1153" d="M133 1501h283l665 -1792h-280z" />
<glyph unicode="]" horiz-adv-x="765" d="M160 -223h159v1607h-159v127h424v-1861h-424v127z" />
<glyph unicode="^" horiz-adv-x="1116" d="M131 537l356 342q20 8 72 8.5t72 -8.5l356 -342q-1 -7 -34 -20t-50 -13l-344 203l-348 -203q-18 2 -48.5 14t-31.5 19z" />
<glyph unicode="_" horiz-adv-x="796" d="M-61 -137l919 -4v-140l-919 5v139z" />
<glyph unicode="`" d="M338 1462q20 17 110 39t136 15l184 -328q-23 -14 -98 -19z" />
<glyph unicode="a" horiz-adv-x="1163" d="M70 221q0 71 31 129.5t85.5 99.5t113 69t128.5 48q122 35 285 43v52q0 172 -38 252.5t-132 80.5q-64 0 -100.5 -36.5t-36.5 -114.5q0 -111 71 -152q-49 -49 -149 -49q-97 0 -153 54.5t-56 136.5q0 121 118 187t322 66q231 0 336.5 -103.5t105.5 -340.5v-346 q0 -109 68 -109q36 0 55 27q27 -43 27 -88q0 -62 -53.5 -104.5t-141.5 -42.5q-99 0 -155 62.5t-68 205.5q-57 -122 -157.5 -195t-235.5 -73q-121 0 -195.5 63t-74.5 178zM379 291q0 -59 27 -97q23 -33 67 -33q7 0 14 1q84 8 159 112t75 246q-152 0 -229 -45 q-52 -29 -82.5 -77t-30.5 -107z" />
<glyph unicode="b" horiz-adv-x="1138" d="M119 106v1250q0 67 42 106t107 39q92 0 174 -61q-45 -185 -45 -447v-110q34 96 114 150t194 54q171 0 267.5 -125.5t96.5 -394.5q0 -287 -122 -441.5t-380 -154.5q-137 0 -256.5 36t-191.5 99zM399 125q64 -43 148 -43q46 0 81.5 17.5t59.5 51.5t40 75.5t24.5 99t12 114 t3.5 127.5q0 198 -30.5 286.5t-100.5 88.5q-77 0 -132 -60t-80.5 -156.5t-25.5 -217.5v-383z" />
<glyph unicode="c" horiz-adv-x="1050" d="M70 532q0 261 137 408t389 147q184 0 281.5 -74.5t97.5 -187.5q0 -84 -53.5 -133t-139.5 -49q-99 0 -145 49q57 54 57 158q0 143 -121 143q-96 0 -149 -109t-53 -306q0 -433 305 -433q105 0 178 52t96 133q35 -14 35 -68q0 -25 -8 -59q-29 -108 -133 -170t-254 -62 q-250 0 -385 146t-135 415z" />
<glyph unicode="d" horiz-adv-x="1212" d="M70 492q0 286 113.5 440.5t324.5 154.5q188 0 248 -120v84q0 230 -47 389q76 61 161 61q70 0 116 -39t46 -106l-2 -1059q0 -107 70 -107q38 0 53 23q27 -43 27 -88q0 -62 -53 -102.5t-130 -40.5q-192 0 -221 266q-91 -277 -342 -277q-95 0 -166 38.5t-114 109 t-63.5 163.5t-20.5 210zM371 498q0 -196 33.5 -285.5t115.5 -89.5q58 0 103.5 46t72.5 124.5t40.5 172.5t13.5 198q0 49 -3.5 86.5t-14 76.5t-29 64t-49.5 41t-74 16q-111 0 -160 -114t-49 -336z" />
<glyph unicode="e" horiz-adv-x="1079" d="M70 532q0 261 136 408t388 147q120 0 214 -34t151 -105.5t57 -171.5q0 -149 -120.5 -231t-320.5 -82q-128 0 -200 8q14 -175 88.5 -250.5t208.5 -75.5q108 0 182.5 42.5t110.5 111.5q34 -14 34 -54q0 -27 -16 -65q-40 -100 -142.5 -154.5t-248.5 -54.5q-241 0 -381.5 148 t-140.5 413zM371 567q12 -2 39 -2h19q33 1 60 3q35 4 79 18t74 40.5t50.5 77t20.5 119.5q0 170 -129 170q-101 0 -157 -112.5t-56 -311.5v-2z" />
<glyph unicode="f" horiz-adv-x="831" d="M23 924l2 67q1 32 21.5 49t51.5 17h64v33q0 432 401 432q152 0 235 -47.5t83 -133.5q0 -59 -44.5 -97t-111.5 -38q-90 0 -127 43q37 53 37 105q0 43 -18 62.5t-58 19.5q-22 0 -39 -7t-29 -23.5t-20.5 -33t-14 -47.5t-8.5 -53t-4.5 -64.5t-1.5 -67v-73.5v-10h25 q28 0 125 2.5t110 5.5l-2 -66q-1 -33 -20.5 -50t-50.5 -17h-187v-633q0 -161 41 -266q-72 -64 -159 -64q-70 0 -116 40t-46 106v817h-17q-68 0 -122 -8z" />
<glyph unicode="g" horiz-adv-x="1120" d="M70 510q0 130 27.5 232.5t85.5 181.5t156.5 121t233.5 42q133 0 249.5 -36t191.5 -99v-862q0 -149 -40.5 -257.5t-115.5 -171t-171 -91.5t-218 -29q-109 0 -194 22.5t-141 77.5t-56 136q0 78 53.5 125t138.5 47q91 0 129 -47q-61 -55 -61 -142q0 -61 34 -98t105 -37 q126 0 192 115.5t66 310.5q0 105 2 154q-73 -201 -303 -201q-364 0 -364 506zM369 481q0 -196 32 -272t119 -76q103 0 157 98t56 279l2 440q-56 43 -145 43q-66 0 -109.5 -33.5t-68 -102.5t-34 -158t-9.5 -218z" />
<glyph unicode="h" horiz-adv-x="1169" d="M133 129v1227q-1 66 35 102t96 41q11 1 23 1q45 0 86 -16q52 -20 84 -44q-28 -93 -37.5 -208t-11.5 -294v-55q86 204 309 204q168 0 249 -102t81 -307v-379q0 -163 40 -266q-72 -64 -159 -64q-70 0 -116 40t-46 106v518q0 168 -30.5 246.5t-114.5 78.5q-97 0 -154 -122.5 t-57 -354.5q0 -218 7 -295t40 -155q-67 -62 -160 -62q-71 0 -117.5 44t-46.5 116z" />
<glyph unicode="i" horiz-adv-x="561" d="M109 1028q78 62 157 62q71 0 115.5 -39t44.5 -107l2 -645q0 -166 41 -266q-70 -64 -162 -64q-68 0 -112.5 40t-44.5 106v645q0 160 -41 268zM119 1337q0 67 46.5 113.5t113.5 46.5q66 0 111.5 -46.5t45.5 -113.5q0 -66 -45.5 -111.5t-111.5 -45.5q-67 0 -113.5 45.5 t-46.5 111.5z" />
<glyph unicode="j" horiz-adv-x="548" d="M-225 -285q0 58 37.5 99t107.5 41q38 0 62 -15t41 -49q-33 -51 -33 -96q0 -35 17.5 -54.5t45.5 -19.5q23 0 39.5 13t26.5 43.5t16 58t8.5 81.5t3 87t0.5 100v12l3 742q0 160 -41 268q68 61 157 61q70 0 115 -39t45 -106v-977q0 -93 -21 -169t-65.5 -135.5t-120.5 -92.5 t-178 -33q-132 0 -199 50t-67 130zM121 1356q0 64 44.5 108.5t108.5 44.5q65 0 109.5 -44.5t44.5 -108.5t-45 -109t-109 -45t-108.5 44.5t-44.5 109.5z" />
<glyph unicode="k" horiz-adv-x="1130" d="M133 129v1227q-1 67 44 106t116 39q90 0 160 -61q-17 -87 -25.5 -161t-10.5 -115.5t-3.5 -114t-3.5 -115.5l-2 -90q48 115 139 179t223 64q133 0 196.5 -64t63.5 -163q0 -117 -83 -206.5t-212 -151.5q36 -7 65 -36.5t62 -82.5l53 -90q36 -61 49 -73q17 -15 42 -15 q31 0 57 18q37 -40 37 -92q0 -67 -58 -114.5t-145 -47.5q-73 0 -131 41t-90 125l-127 307q-87 -23 -137 -30q0 -175 7.5 -241.5t39.5 -139.5q-76 -62 -170 -62q-89 0 -122.5 42.5t-33.5 117.5zM412 512q60 18 116 47t105.5 69.5t79.5 96t30 117.5q0 106 -86 106 q-102 0 -173.5 -128t-71.5 -308z" />
<glyph unicode="l" horiz-adv-x="600" d="M131 272v1084q0 67 45.5 106t116.5 39q90 0 160 -61q-25 -93 -33 -178.5t-8 -221.5v-743q0 -109 71 -109q44 0 60 27q28 -41 28 -88q0 -63 -54.5 -105t-131.5 -42q-123 0 -188.5 77.5t-65.5 214.5z" />
<glyph unicode="m" horiz-adv-x="1783" d="M31 938q0 66 46 107.5t124 41.5q94 0 149 -61.5t62 -185.5q80 247 325 247q121 0 192 -59t99 -178q38 111 119.5 174t200.5 63q311 0 311 -409v-379q0 -161 41 -266q-72 -64 -162 -64q-70 0 -116 40t-46 106v518q0 51 -1 84.5t-4.5 75.5t-12 68t-21 50t-33.5 35.5 t-49 11.5q-87 0 -146 -123.5t-60 -347.5v-188q0 -161 41 -266q-72 -64 -158 -64q-67 0 -111.5 40t-44.5 106v518q0 66 -3 113.5t-12 89.5t-24 67.5t-39 40t-57 14.5q-88 0 -140 -122.5t-52 -358.5q0 -215 7 -291.5t40 -154.5q-67 -62 -162 -62q-70 0 -116 44t-46 116l-2 641 q0 109 -57 109q-14 0 -31 -7.5t-25 -21.5q-26 42 -26 88z" />
<glyph unicode="n" horiz-adv-x="1204" d="M31 942q0 65 44 105t124 40q94 0 149.5 -60.5t61.5 -180.5q83 241 340 241q168 0 248.5 -102t80.5 -307v-379q6 -175 43 -266q-71 -64 -161 -64q-70 0 -116 40t-46 106v518q-2 163 -32 239t-114 76q-97 0 -154 -120t-57 -347q0 -218 7 -295t40 -155q-67 -62 -159 -62 q-73 0 -119.5 43.5t-46.5 116.5v641q-1 58 -14 83.5t-39 25.5q-39 0 -54 -25q-26 42 -26 88z" />
<glyph unicode="o" horiz-adv-x="1150" d="M70 528q0 264 133 411.5t372 147.5t372.5 -147.5t133.5 -411.5q0 -263 -133.5 -410t-372.5 -147t-372 147t-133 410zM371 528q0 -233 49.5 -347.5t154.5 -114.5q203 0 203 462q0 465 -203 465q-105 0 -154.5 -115.5t-49.5 -349.5z" />
<glyph unicode="p" horiz-adv-x="1198" d="M31 934q0 63 47.5 103t122.5 40q95 0 149 -69.5t68 -198.5q89 278 342 278q80 0 142.5 -27t104.5 -73.5t69.5 -113.5t39.5 -142.5t12 -163.5q0 -288 -119 -442t-325 -154q-184 0 -244 119v-82q0 -233 45 -389q-66 -61 -161 -61q-70 0 -116 38.5t-46 104.5l2 1061 q0 106 -53 106q-39 0 -54 -22q-26 42 -26 88zM444 424q0 -161 38.5 -235t129.5 -74q113 0 164 114.5t51 339.5q0 186 -33 277.5t-120 91.5q-77 0 -131 -80t-76.5 -192.5t-22.5 -241.5z" />
<glyph unicode="q" horiz-adv-x="1126" d="M70 496q0 134 28 240t85.5 185.5t154.5 122.5t227 43q137 0 259 -38t194 -97v-1267q0 -65 -44.5 -105t-121.5 -41h-5q-84 0 -157 64q11 33 19 69t13 76.5t8 71.5t4 76.5t2 67.5v28v40q-1 46 -1 56v88q-34 -98 -114 -152.5t-193 -54.5q-167 0 -262.5 127.5t-95.5 399.5z M371 489q2 -189 32 -280.5t103 -91.5q72 0 126.5 65.5t79.5 161t25 203.5v385q-69 43 -157 43q-62 0 -103.5 -32t-64.5 -97t-32 -150q-9 -78 -9 -184v-23z" />
<glyph unicode="r" horiz-adv-x="968" d="M31 942q0 65 44 105t124 40q90 0 145 -56t64 -167q72 223 270 223q119 0 192.5 -63t73.5 -172q0 -79 -49 -131.5t-123 -54.5q-90 0 -129 45q37 68 37 141q0 106 -84 106q-73 0 -113.5 -121t-40.5 -356q0 -212 7 -288t40 -154q-65 -60 -161 -62q-68 0 -116 43.5t-48 116.5 v633q0 109 -53 109q-39 0 -54 -25q-26 42 -26 88z" />
<glyph unicode="s" horiz-adv-x="976" d="M59 209q-1 69 49 115q36 34 102 33q26 0 56 -5q-5 -23 -5 -46q0 -32 9 -64q12 -70 68 -120t154 -50q78 0 127 31t49 92q0 35 -14 63t-54.5 55.5t-61.5 39t-86 42.5q-15 7 -22 11q-47 22 -69.5 33t-65.5 35t-65.5 42.5t-53 49t-46 61t-27 72t-11.5 87.5q0 63 22 114t60 86 t90.5 58.5t112.5 34.5t127 11q170 0 273.5 -51t103.5 -148q0 -53 -33 -90.5t-103 -38.5h-17q-26 0 -54 4q1 12 1 22q0 62 -20 101q-18 48 -59 76t-102 28q-64 0 -107 -27.5t-43 -82.5q0 -26 8 -49.5t29 -45t37.5 -36t53.5 -35t55.5 -30.5t64.5 -32q40 -19 60.5 -29.5 t58 -30.5t58.5 -35t50.5 -37.5t46 -44.5t33 -49t24 -58.5t7.5 -65.5q0 -65 -26.5 -122.5t-80.5 -106t-149.5 -77t-220.5 -28.5q-193 0 -293.5 65t-100.5 173z" />
<glyph unicode="t" horiz-adv-x="727" d="M6 924l2 67q1 32 22 49t52 17h78v131q0 66 45.5 104.5t116.5 38.5q89 0 159 -61q-29 -108 -37 -213q43 0 138.5 2.5t107.5 5.5l-2 -66q-1 -33 -21 -50t-51 -17h-176v-60v-575q0 -109 92 -109q66 0 80 27q29 -42 29 -88q0 -65 -61 -106t-164 -41q-123 0 -189.5 77.5 t-66.5 214.5v660h-31q-69 0 -123 -8z" />
<glyph unicode="u" horiz-adv-x="1196" d="M92 1026q73 61 162 61q71 0 116.5 -39t45.5 -106v-516q0 -173 28.5 -250.5t108.5 -77.5q95 0 150 123t55 357q0 216 -7 293t-40 157q74 59 161 59q70 0 116 -43t46 -116l2 -641q0 -107 54 -107q35 0 53 23q26 -42 26 -86q0 -66 -44 -106t-124 -40q-94 0 -149 60.5 t-61 179.5q-83 -242 -334 -242q-167 0 -245.5 96t-78.5 316v377q0 160 -41 268z" />
<glyph unicode="v" horiz-adv-x="1052" d="M16 1022q54 63 160 63q66 0 110 -28t56 -82l209 -832l180 750q12 66 12 94q0 47 -18 68q73 30 145 30q82 0 118 -27.5t36 -90.5q0 -79 -29 -146l-305 -811q-96 -41 -188 -41q-118 0 -148 92l-272 828q-37 103 -66 133z" />
<glyph unicode="w" horiz-adv-x="1712" d="M25 1022q54 63 159 63q66 0 110 -28t56 -82l182 -815l152 733q10 52 10 94q0 47 -18 68q59 25 182 30q166 0 191 -104l180 -821l153 733q13 72 13 94q0 41 -19 68q73 30 146 30q82 0 117.5 -27.5t35.5 -90.5q0 -72 -28 -146l-277 -811q-100 -41 -190 -41q-54 0 -95.5 22 t-52.5 70l-174 748l-172 -799q-103 -41 -203 -41q-117 0 -147 92l-246 828q-1 3 -7.5 22t-10.5 29.5t-12 27.5t-16.5 30t-18.5 24z" />
<glyph unicode="x" horiz-adv-x="1069" d="M39 913q0 70 55 122t160 52q39 0 68.5 -9.5t51.5 -24t47 -49.5t44 -68t53 -98l57 -111l154 274q46 86 145 86q73 0 113 -41.5t49 -130.5q-77 -20 -127.5 -62.5t-97.5 -109.5l-137 -192l151 -262q19 -34 42.5 -52t41.5 -18q16 0 35 17t25 38q36 -17 62 -51t26 -80 q0 -69 -57 -121.5t-152 -52.5q-39 0 -71.5 12t-56 29t-50 53t-44.5 67.5t-48 88.5l-72 131l-166 -297q-46 -82 -139 -82q-64 0 -107.5 40.5t-50.5 129.5q78 19 130.5 60.5t94.5 107.5l144 211l-144 246q-43 72 -78 72q-21 0 -40 -17t-25 -39q-86 42 -86 131z" />
<glyph unicode="y" horiz-adv-x="1144" d="M92 1026q73 61 162 61q71 0 116.5 -39t45.5 -106v-500q0 -84 5.5 -140.5t20 -100t41 -64t66.5 -20.5q97 0 153 119t56 344q0 216 -7 292t-40 156q74 59 161 59q70 0 116 -43t46 -116l2 -819q0 -154 -39.5 -266t-112.5 -177t-167.5 -95t-214.5 -30q-393 0 -393 215 q0 68 53 110t139 42q89 0 127 -47q-59 -42 -59 -105q0 -58 35.5 -94.5t103.5 -36.5q128 0 197 120t69 321q0 49 19 174q-83 -254 -338 -254q-165 0 -243.5 95.5t-78.5 315.5v361q0 160 -41 268z" />
<glyph unicode="z" horiz-adv-x="1036" d="M47 885q1 90 77 143q69 48 204 48q15 0 32 -1l381 -14q17 -1 33 -1q97 0 154 21l26 -71q0 -63 -11 -101.5t-48 -81.5l-528 -604l297 15q90 6 135 61q26 28 26 70v12q35 -8 68 -21q60 -30 91.5 -83t31.5 -99q0 -85 -78 -139q-73 -51 -201 -51h-14l-440 12q-16 1 -30 1 q-99 0 -159 -24l-33 60q0 64 12 103.5t50 78.5l584 649l-310 -30q-72 -8 -121 -54q-39 -36 -39 -78q0 -6 1 -12q-43 7 -70 23q-58 28 -89.5 77.5t-31.5 90.5z" />
<glyph unicode="{" horiz-adv-x="878" d="M113 549v82q74 30 105.5 75.5t31.5 129.5q0 83 -16.5 214.5t-16.5 172.5q0 305 373 305q144 0 215 -41q14 -7 10.5 -44.5t-20.5 -41.5q-61 22 -119 22q-89 0 -131.5 -40t-42.5 -138q0 -43 17.5 -179t17.5 -214q0 -222 -105 -256v-12q47 -14 76 -77.5t29 -174.5 q0 -71 -17.5 -214t-17.5 -192q0 -188 174 -188q52 0 119 24q17 -4 20.5 -41.5t-10.5 -46.5q-76 -39 -215 -39q-373 0 -373 304q0 51 16.5 193.5t16.5 219.5q0 83 -31.5 124.5t-105.5 72.5z" />
<glyph unicode="|" horiz-adv-x="739" d="M238 -281v1776h262v-1776h-262z" />
<glyph unicode="}" horiz-adv-x="876" d="M61.5 -279.5q3.5 37.5 20.5 41.5q67 -24 119 -24q174 0 174 188q0 49 -17.5 192t-17.5 214q0 112 28.5 175t75.5 77v12q-104 34 -104 256q0 78 17.5 214t17.5 179q0 98 -42.5 138t-131.5 40q-58 0 -119 -22q-17 4 -20.5 41.5t10.5 44.5q71 41 215 41q372 0 372 -305 q0 -41 -16 -172.5t-16 -214.5q0 -84 31.5 -129.5t105.5 -75.5v-82q-74 -31 -105.5 -72.5t-31.5 -124.5q0 -77 16 -219.5t16 -193.5q0 -304 -372 -304q-139 0 -215 39q-14 9 -10.5 46.5z" />
<glyph unicode="~" horiz-adv-x="1028" d="M121 604q10 122 77 177t158 55q44 0 93 -19.5t85 -43t84 -43t91 -19.5q29 0 50.5 7t36.5 24t22 29t20 38q44 0 67 -18q-16 -106 -72.5 -170t-146.5 -64q-43 0 -91 19.5t-84 43t-82.5 43t-86.5 19.5q-100 0 -149 -96q-13 -3 -35.5 3t-36.5 15z" />
<glyph unicode="&#xa1;" horiz-adv-x="647" d="M160 -410q159 -54 327 0l-61 1057h-190zM162 932q0 66 46.5 112t113.5 46q66 0 111.5 -46t45.5 -112q0 -67 -45.5 -113.5t-111.5 -46.5q-68 0 -114 46t-46 114z" />
<glyph unicode="&#xa2;" horiz-adv-x="1060" d="M72 727q0 193 75.5 325t219.5 189l-35 102q-40 115 -68 166q1 1 4.5 5.5t5 6l5 5t7 5.5t8.5 4.5t11 4.5q45 14 60 -27l84 -247q72 16 149 16q184 0 281.5 -74.5t97.5 -187.5q0 -84 -53.5 -133t-139.5 -49q-99 0 -145 49q57 54 57 157q0 144 -121 144q-51 0 -90 -33 l271 -807q75 17 126.5 64.5t69.5 111.5q51 -21 27 -127q-34 -128 -174 -190l47 -144q35 -108 66 -165q-15 -23 -41 -31q-46 -15 -58 27l-96 286q-57 -14 -131 -14q-250 0 -385 146t-135 415zM373 772q0 -426 297 -432l-246 731q-51 -108 -51 -299z" />
<glyph unicode="&#xa3;" horiz-adv-x="1046" d="M47 559l2 66q1 32 22 49.5t52 17.5h92q-25 187 -25 256q0 118 30 208t76 141.5t110.5 83.5t124 42.5t126.5 10.5q147 0 229.5 -54.5t82.5 -130.5q0 -143 -138 -143q-34 0 -55 6q0 112 -40 171.5t-107 59.5q-34 0 -60 -11t-50 -40t-37 -87t-13 -144q0 -83 14.5 -209.5 t16.5 -159.5h20q23 0 140.5 2.5t130.5 3.5l-3 -65q-1 -33 -21.5 -50.5t-51.5 -17.5h-209q-2 -185 -73 -299t-224 -164q409 0 760 211q28 -52 28 -155q0 -65 -25.5 -111.5t-74.5 -46.5h-831v78q96 133 130.5 216t34.5 185q0 28 -4 86h-57q-42 0 -123 -6z" />
<glyph unicode="&#xa4;" horiz-adv-x="1271" d="M125 1135q9 31 37 59q44 44 76 12l108 -104q128 92 293 92q176 0 303 -102q99 110 113 133q31 -9 57 -35q44 -44 14 -78l-102 -104q92 -126 92 -289q0 -177 -108 -307h2q93 -93 135 -119q-9 -29 -35 -55q-44 -47 -76 -15l-112 109q-126 -90 -289 -90q-171 0 -301 100 l-2 -2q-100 -100 -117 -135q-4 2 -14 6.5t-15 7t-13 9t-15 14.5q-24 22 -28 38.5t13 34.5l109 111q-96 123 -96 291q0 178 106 303q-15 14 -41.5 38t-39 36t-28.5 24t-26 17zM346 719q0 -145 85 -236.5t206 -91.5q120 0 203.5 91.5t83.5 234.5q0 145 -84 236t-207 91 q-120 0 -203.5 -91t-83.5 -234z" />
<glyph unicode="&#xa5;" horiz-adv-x="1226" d="M8 1362q29 31 83 59.5t120 28.5q79 0 120 -38.5t79 -121.5l260 -565l237 530q23 50 23 91q0 42 -29 75q74 29 162 29q65 0 97 -34.5t34 -86.5q0 -69 -68 -174l-286 -477q193 0 217 4l-2 -66q-1 -32 -22 -49.5t-52 -17.5h-219l-6 -12v-23q293 6 301 8l-2 -65 q-1 -32 -22 -50t-52 -18h-225v-90q0 -161 41 -266q-23 -23 -66.5 -43.5t-95.5 -20.5q-72 0 -118 40t-46 106v274h-186q-69 0 -123 -8l2 65q1 32 22 50t52 18h233v25l-6 10h-180q-42 0 -123 -6l2 65q1 32 22 50t52 18h157l-282 543q-43 83 -105 143z" />
<glyph unicode="&#xa6;" horiz-adv-x="739" d="M238 -281v758h262v-758h-262zM238 737v758h262v-758h-262z" />
<glyph unicode="&#xa7;" horiz-adv-x="972" d="M59 -6q0 30 10 56.5t31.5 50t63 33t96.5 -0.5q-11 -51 2 -108q13 -72 70 -122t155 -50q82 0 132.5 31t50.5 93q0 38 -18 69t-58 58t-72.5 43.5t-93.5 42.5q-47 23 -69.5 34t-65 35.5t-65 43t-53 49t-45.5 61t-26.5 71.5t-11.5 87q0 105 55.5 174t153.5 99 q-64 38 -106.5 76.5t-72.5 100.5t-30 138q0 78 33 137t90.5 93.5t129.5 51.5t157 17q169 0 270.5 -50.5t101.5 -147.5q0 -53 -31 -89.5t-98 -37.5q-32 -2 -69 4q3 68 -19 120q-39 107 -168 107q-64 0 -108.5 -28.5t-44.5 -84.5q0 -40 18.5 -72.5t60 -62t75 -47.5t96.5 -47 q149 -72 208 -116q132 -97 132 -232q0 -96 -57 -176t-177 -117q111 -60 172.5 -128t61.5 -167q0 -65 -26.5 -122.5t-80.5 -106t-148.5 -77t-219.5 -28.5q-192 0 -292 66.5t-100 175.5zM336 662q0 -36 16.5 -67t50 -57.5t67.5 -45.5t85 -43q52 6 83.5 36t31.5 82q0 35 -17 65 t-53.5 56t-69.5 43.5t-88 42.5q-106 -17 -106 -112z" />
<glyph unicode="&#xa8;" d="M262 1325q0 54 37.5 90.5t91.5 36.5q53 0 90 -36.5t37 -90.5q0 -53 -37 -90t-90 -37q-54 0 -91.5 37t-37.5 90zM653 1325q0 54 37 90.5t90 36.5t91 -37t38 -90q0 -52 -38 -89.5t-91 -37.5q-52 0 -89.5 37t-37.5 90z" />
<glyph unicode="&#xa9;" horiz-adv-x="1646" d="M90 719q0 151 58 288t156 235.5t234.5 157t286.5 58.5t285.5 -58.5t234 -157.5t156.5 -236t58 -287q0 -152 -58 -289.5t-156.5 -237t-234 -158.5t-285.5 -59q-201 0 -370 99.5t-267 270.5t-98 374zM197 719q0 -175 83.5 -322t227.5 -232t315 -85q170 0 314.5 85.5 t228.5 232.5t84 321q0 130 -49.5 248t-133.5 203t-200.5 135.5t-243.5 50.5q-171 0 -315 -85t-227.5 -232t-83.5 -320zM449 719q0 212 103 329t288 117q74 0 141 -16.5t113.5 -53t46.5 -85.5q0 -44 -40.5 -78t-109.5 -33q-17 205 -149 205q-97 0 -143 -95.5t-46 -289.5 q0 -195 44 -290t137 -95q148 0 174 215q60 10 106.5 -16.5t46.5 -81.5q0 -60 -51.5 -103t-126 -61.5t-160.5 -18.5q-176 0 -275 118.5t-99 332.5z" />
<glyph unicode="&#xaa;" horiz-adv-x="837" d="M51 903q0 50 23 91t63 68.5t81.5 45t90.5 29.5q86 20 199 28v35q0 105 -26 155t-89 50q-41 0 -64.5 -23t-23.5 -69q0 -71 47 -101q-37 -34 -110 -34q-72 0 -114 35t-42 92q0 81 86 125.5t234 44.5q170 0 244.5 -66t74.5 -225v-201q0 -70 49 -70q27 0 35 11q20 -25 20 -66 q0 -48 -38 -79t-105 -31q-62 0 -117 41t-59 106q-40 -68 -108 -109t-156 -41q-87 0 -141 40.5t-54 117.5zM283 963q0 -33 18 -54.5t55 -17.5q59 8 108 64.5t48 142.5q-111 -4 -156 -29q-73 -39 -73 -106z" />
<glyph unicode="&#xab;" horiz-adv-x="1523" d="M36.5 488.5q0.5 64.5 6.5 78.5l750 439l69 -103l-543 -405v-11l541 -383l-69 -96l-748 400q-7 16 -6.5 80.5zM614.5 488.5q0.5 64.5 6.5 78.5l749 439l70 -103l-543 -405v-11l541 -383l-70 -96l-747 400q-7 16 -6.5 80.5z" />
<glyph unicode="&#xac;" horiz-adv-x="1085" d="M119 672q-27 74 0 147h819v-348q-68 -27 -137 0v201h-682z" />
<glyph unicode="&#xad;" horiz-adv-x="817" d="M72 449v161h671v-161h-671z" />
<glyph unicode="&#xae;" horiz-adv-x="1646" d="M90 719q0 151 58 288t156 235.5t234.5 157t286.5 58.5t285.5 -58.5t234 -157.5t156.5 -236t58 -287q0 -152 -58 -289.5t-156.5 -237t-234 -158.5t-285.5 -59q-201 0 -370 99.5t-267 270.5t-98 374zM197 719q0 -175 83.5 -322t227.5 -232t315 -85q170 0 314.5 85.5 t228.5 232.5t84 321q0 103 -31.5 200t-89.5 175.5t-135.5 137.5t-173 91.5t-197.5 32.5q-171 0 -315 -85t-227.5 -232t-83.5 -320zM487 1124q87 41 256 41q201 0 299.5 -53t98.5 -174q0 -88 -53.5 -149.5t-147.5 -86.5q74 -21 115 -98l55 -104q29 -53 44.5 -72t35.5 -20 q14 -2 33 6q10 -30 10 -49q0 -45 -33.5 -75t-85.5 -30q-36 0 -65 15.5t-49.5 44t-37 60.5t-33.5 72l-1.5 4.5t-1.5 4t-2 4.5l-35 82q-28 63 -60 89t-84 26l-43 2v-203q0 -100 25 -160q-43 -43 -109 -43q-44 0 -74 26.5t-30 69.5v600q0 104 -27 170zM702 727q5 0 15.5 -0.5 t19.5 -0.5t17 1q88 4 137 59.5t49 139.5q0 75 -42 124t-140 52h-56v-375z" />
<glyph unicode="&#xaf;" d="M252 1231q-18 61 0 125h582q18 -64 0 -125h-582z" />
<glyph unicode="&#xb0;" horiz-adv-x="774" d="M109 1192q0 109 82 187.5t198 78.5q115 0 197 -78.5t82 -187.5q0 -112 -81.5 -191t-197.5 -79q-117 0 -198.5 78.5t-81.5 191.5zM260 1192q0 -58 37 -98.5t90 -40.5t91 40.5t38 98.5q0 57 -38 96t-91 39t-90 -39t-37 -96z" />
<glyph unicode="&#xb1;" horiz-adv-x="1181" d="M182 240q-27 74 0 147h817q27 -73 0 -147h-817zM182 725q-27 73 0 147h334v232q74 27 148 0v-232h335q27 -74 0 -147h-335v-233q-74 -27 -148 0v233h-334z" />
<glyph unicode="&#xb2;" horiz-adv-x="878" d="M62 519.5q-8 30.5 1 74.5q16 7 51.5 30t93 64.5t114.5 99t108.5 124.5t84 151.5t32.5 169.5q0 63 -32.5 108t-100.5 45q-38 0 -66.5 -18.5t-44.5 -46.5t-26 -69t-13 -76.5t-4 -79.5q-56 0 -96 16t-59 42t-27 50.5t-8 50.5q0 92 98.5 147.5t263.5 55.5q164 0 263.5 -64 t99.5 -188q0 -95 -45.5 -190t-113.5 -166.5t-146 -130t-143.5 -91.5t-106.5 -40q129 10 312.5 57t233.5 94q28 -23 38.5 -89t-3.5 -124t-49 -59h-682q-20 22 -28 52.5z" />
<glyph unicode="&#xb3;" horiz-adv-x="890" d="M47 608q0 21 6.5 41t23 42.5t51.5 36t85 13.5q8 -91 29 -133q45 -87 159 -88q79 0 130 54.5t51 142.5q0 60 -28.5 104t-78.5 68.5t-109 36t-128 10.5v78q83 5 145 29t94.5 59t48 70.5t15.5 70.5q0 72 -28 107.5t-95 35.5q-150 0 -150 -215q-55 -1 -92.5 11t-52.5 32.5 t-20 35.5t-5 30q0 86 86 132t250 46q49 0 94 -5t96 -20.5t87.5 -40t61 -68t24.5 -99.5q0 -82 -74.5 -150t-187.5 -98q140 -20 222.5 -77.5t82.5 -158.5q0 -132 -116 -211t-308 -79q-91 0 -160.5 11.5t-108 28t-62 39.5t-31 41t-7.5 37z" />
<glyph unicode="&#xb4;" d="M408 1188l184 328q46 7 136 -15t110 -39l-332 -293q-75 5 -98 19z" />
<glyph unicode="&#xb5;" horiz-adv-x="1208" d="M104 1026q73 61 162 61q71 0 116.5 -39t45.5 -106v-516q0 -173 28.5 -250.5t108.5 -77.5q95 0 150 123t55 357q0 216 -7 293t-40 157q74 59 162 59q70 0 116 -43t46 -116l2 -641q0 -107 53 -107q35 0 53 23q27 -43 27 -86q0 -66 -44 -106t-124 -40q-94 0 -149.5 60.5 t-61.5 179.5q-83 -242 -334 -242q-42 0 -80 6v-18q8 -199 80 -338q-66 -61 -162 -61q-71 0 -116.5 38.5t-45.5 104.5v1057q0 160 -41 268z" />
<glyph unicode="&#xb6;" horiz-adv-x="1648" d="M102 952q0 45 6 87.5t24.5 94.5t48 96.5t80.5 87.5t118.5 73t166 48.5t218.5 18.5q326 0 507 -156t181 -448v-881q0 -112 23 -207t61 -102q-18 -30 -72.5 -46.5t-115.5 -16.5q-65 0 -119.5 55t-54.5 143v1039q0 232 -108 373t-302 141q-103 0 -180.5 -36t-120 -95.5 t-62.5 -126.5t-20 -140q0 -169 77 -257t201 -83v203q0 160 -41 268q78 62 158 62q63 0 103.5 -39.5t40.5 -106.5v-702q0 -161 41 -266q-20 -23 -58 -43.5t-86 -20.5q-68 0 -113 40t-45 106v389q-84 -8 -165 5.5t-152 49t-124.5 89t-84.5 132t-31 172.5z" />
<glyph unicode="&#xb7;" horiz-adv-x="645" d="M164 612q0 66 46.5 112t113.5 46q66 0 111.5 -46t45.5 -112q0 -67 -45.5 -113t-111.5 -46q-68 0 -114 46t-46 113z" />
<glyph unicode="&#xb8;" d="M371 -393q-4 20 4.5 51t19.5 37l7 -7q8 -6 13 -10t16 -11t22 -11t27 -7t34 -3q41 0 62.5 22.5t21.5 61.5q0 42 -32 67.5t-91 18.5l41 219h113l-27 -152q106 2 169 -38.5t63 -114.5q0 -88 -68.5 -141.5t-190.5 -53.5q-141 0 -204 72z" />
<glyph unicode="&#xb9;" horiz-adv-x="739" d="M57 1251q3 1 71.5 44t143 90.5t86.5 54.5q45 18 91 18q59 0 96 -33t37 -92v-620q0 -119 32 -205q-53 -53 -131 -53q-54 0 -88.5 33t-34.5 90v622q0 35 -4 53q-48 -60 -105 -108.5t-97 -48.5q-97 0 -97 155z" />
<glyph unicode="&#xba;" horiz-adv-x="829" d="M49 1106q0 174 96 271.5t269 97.5q172 0 268 -98t96 -271t-96 -271t-268 -98q-173 0 -269 97.5t-96 271.5zM279 1106q0 -153 32.5 -226t104.5 -73q135 0 135 299q0 297 -135 297q-73 0 -105 -72t-32 -225z" />
<glyph unicode="&#xbb;" horiz-adv-x="1523" d="M84 903l70 103l749 -439q6 -14 6.5 -78.5t-6.5 -80.5l-747 -400l-70 96l541 383v11zM662 903l69 103l750 -439q6 -14 6.5 -78.5t-6.5 -80.5l-748 -400l-69 96l540 383v11z" />
<glyph unicode="&#xbc;" horiz-adv-x="2174" d="M57 1251q3 1 71.5 44t143 90.5t86.5 54.5q45 18 91 18q59 0 96 -33t37 -92v-620q0 -119 32 -205q-53 -53 -131 -53q-54 0 -88.5 33t-34.5 90v622q0 35 -4 53q-48 -60 -105 -108.5t-97 -48.5q-97 0 -97 155zM567 18l645 1440q115 15 168 -57l-655 -1430q-94 -17 -158 47z M1267.5 258.5q-20.5 44.5 6.5 81.5l452 586q16 21 53.5 38t73.5 17q59 0 96.5 -33.5t37.5 -91.5v-506q78 10 139 29q31 -83 -15 -168h-124q4 -106 30 -180q-17 -20 -51.5 -38t-77.5 -18q-54 0 -88.5 34t-34.5 93v109h-432q-45 3 -65.5 47.5zM1409 344h356v447z" />
<glyph unicode="&#xbd;" horiz-adv-x="2105" d="M57 1251q3 1 71.5 44t143 90.5t86.5 54.5q45 18 91 18q59 0 96 -33t37 -92v-620q0 -119 32 -205q-53 -53 -131 -53q-54 0 -88.5 33t-34.5 90v622q0 35 -4 53q-48 -60 -105 -108.5t-97 -48.5q-97 0 -97 155zM567 18l645 1440q115 15 168 -57l-655 -1430q-94 -17 -158 47z M1282.5 51.5q-8.5 31.5 1.5 75.5q16 8 51 30t92.5 63.5t114.5 99t109 124.5t84 152t32 170q0 63 -32.5 108.5t-100.5 45.5q-47 0 -79 -26t-47 -73.5t-20.5 -91t-6.5 -100.5q-56 0 -96 16t-59.5 42t-27.5 50.5t-8 50.5q0 92 98.5 147.5t264.5 55.5q164 0 263 -64t99 -188 q0 -95 -45.5 -190t-113.5 -166.5t-146 -130t-143.5 -91.5t-106.5 -40q129 10 313 57t234 94q28 -23 38.5 -89t-3.5 -124t-49 -59h-682q-20 20 -28.5 51.5z" />
<glyph unicode="&#xbe;" horiz-adv-x="2326" d="M47 608q0 21 6.5 41t23 42.5t51.5 36t85 13.5q8 -91 29 -133q45 -87 159 -88q79 0 130 54.5t51 142.5q0 60 -28.5 104t-78.5 68.5t-109 36t-128 10.5v78q83 5 145 29t94.5 59t48 70.5t15.5 70.5q0 72 -28 107.5t-95 35.5q-150 0 -150 -215q-55 -1 -92.5 11t-52.5 32.5 t-20 35.5t-5 30q0 86 86 132t250 46q49 0 94 -5t96 -20.5t87.5 -40t61 -68t24.5 -99.5q0 -82 -74.5 -150t-187.5 -98q140 -20 222.5 -77.5t82.5 -158.5q0 -132 -116 -211t-308 -79q-91 0 -160.5 11.5t-108 28t-62 39.5t-31 41t-7.5 37zM719 18l645 1440q115 15 168 -57 l-655 -1430q-94 -17 -158 47zM1419 258.5q-20 44.5 6 81.5l453 586q16 21 53.5 38t73.5 17q59 0 96 -33.5t37 -91.5v-506q78 10 139 29q32 -84 -14 -168h-125q4 -103 31 -180q-17 -20 -51.5 -38t-77.5 -18q-54 0 -88.5 34t-34.5 93v109h-432q-46 3 -66 47.5zM1561 344h356 v447z" />
<glyph unicode="&#xbf;" horiz-adv-x="1040" d="M70 -23q0 93 30.5 170t78.5 127.5t110.5 86t123 52t119.5 19.5v223h205v-327q-162 -6 -264 -99t-102 -266q0 -82 23.5 -147.5t79 -108.5t136.5 -43q213 0 217 324q131 0 181.5 -40t50.5 -106q0 -121 -127.5 -198.5t-341.5 -77.5q-112 0 -203.5 22.5t-164 69.5t-112.5 128 t-40 191zM494 938q0 66 45.5 112t111.5 46q67 0 113.5 -46t46.5 -112q0 -68 -46.5 -114t-113.5 -46q-66 0 -111.5 46.5t-45.5 113.5z" />
<glyph unicode="&#xc0;" horiz-adv-x="1286" d="M35 90q0 57 28 146l398 1185q118 39 241 39q129 0 154 -92l356 -1200q25 -88 68 -133q-55 -64 -168 -64q-68 0 -114 28.5t-58 82.5l-88 334h-446l-64 -252q-14 -58 -14 -94q0 -46 22 -68q-79 -31 -155 -31q-84 0 -122 28t-38 91zM334 1694q17 46 67 101.5t88 70.5 l297 -275q2 -8 -14 -31.5t-29 -29.5zM442 567h371l-188 725z" />
<glyph unicode="&#xc1;" horiz-adv-x="1286" d="M35 90q0 57 28 146l398 1185q118 39 241 39q129 0 154 -92l356 -1200q25 -88 68 -133q-55 -64 -168 -64q-68 0 -114 28.5t-58 82.5l-88 334h-446l-64 -252q-14 -58 -14 -94q0 -46 22 -68q-79 -31 -155 -31q-84 0 -122 28t-38 91zM442 567h371l-188 725zM520 1591l297 275 q38 -15 88.5 -70.5t67.5 -101.5l-410 -164q-13 6 -29 29.5t-14 31.5z" />
<glyph unicode="&#xc2;" horiz-adv-x="1286" d="M35 90q0 57 28 146l398 1185q118 39 241 39q129 0 154 -92l356 -1200q25 -88 68 -133q-55 -64 -168 -64q-68 0 -114 28.5t-58 82.5l-88 334h-446l-64 -252q-14 -58 -14 -94q0 -46 22 -68q-79 -31 -155 -31q-84 0 -122 28t-38 91zM291 1571l284 274q19 9 71 9.5t71 -9.5 l284 -274q0 -9 -18 -31.5t-31 -28.5l-305 162l-307 -162q-12 6 -29.5 28.5t-19.5 31.5zM442 567h371l-188 725z" />
<glyph unicode="&#xc3;" horiz-adv-x="1286" d="M35 90q0 57 28 146l398 1185q118 39 241 39q129 0 154 -92l356 -1200q25 -88 68 -133q-55 -64 -168 -64q-68 0 -114 28.5t-58 82.5l-88 334h-446l-64 -252q-14 -58 -14 -94q0 -46 22 -68q-79 -31 -155 -31q-84 0 -122 28t-38 91zM317 1583q10 118 67 169.5t138 51.5 q53 0 146 -45t145 -45q48 0 71 20t42 60q41 0 59 -16q-16 -102 -64.5 -163t-127.5 -61q-52 0 -144 45.5t-139 45.5q-54 0 -83 -22t-48 -58q-12 -3 -31 2.5t-31 15.5zM442 567h371l-188 725z" />
<glyph unicode="&#xc4;" horiz-adv-x="1286" d="M35 90q0 57 28 146l398 1185q118 39 241 39q129 0 154 -92l356 -1200q25 -88 68 -133q-55 -64 -168 -64q-68 0 -114 28.5t-58 82.5l-88 334h-446l-64 -252q-14 -58 -14 -94q0 -46 22 -68q-79 -31 -155 -31q-84 0 -122 28t-38 91zM291 1694q0 60 42 102.5t103 42.5 q60 0 103 -42.5t43 -102.5q0 -61 -43 -103.5t-103 -42.5q-61 0 -103 42t-42 104zM442 567h371l-188 725zM731 1694q0 60 42.5 102.5t103.5 42.5q60 0 102.5 -42.5t42.5 -102.5q0 -61 -42.5 -103.5t-102.5 -42.5q-61 0 -103.5 42t-42.5 104z" />
<glyph unicode="&#xc5;" horiz-adv-x="1286" d="M35 90q0 57 28 146l398 1185q118 39 241 39q129 0 154 -92l356 -1200q25 -88 68 -133q-55 -64 -168 -64q-68 0 -114 28.5t-58 82.5l-88 334h-446l-64 -252q-14 -58 -14 -94q0 -46 22 -68q-79 -31 -155 -31q-84 0 -122 28t-38 91zM442 567h371l-188 725zM453 1700 q0 84 58.5 135t152.5 51q91 0 146.5 -49t55.5 -129q-1 -84 -59 -134t-152 -50q-91 0 -146.5 48.5t-55.5 127.5zM586 1704q0 -107 73 -107q74 0 74 107q0 106 -74 106q-73 0 -73 -106z" />
<glyph unicode="&#xc6;" horiz-adv-x="1792" d="M35 109q0 53 39 127l598 1146q65 19 185.5 33.5t203.5 14.5h577q37 0 44 -55t-15.5 -116.5t-58.5 -78.5q-104 50 -234 80t-260 34v-479h432q19 -69 0 -151h-432v-529q133 4 297 41.5t248 79.5q35 -22 48.5 -84.5t-4.5 -117t-61 -54.5h-651q-71 0 -116.5 39t-45.5 106v271 h-368l-109 -252q-14 -33 -14 -94q0 -45 20 -68q-79 -31 -153 -31q-82 0 -126 37t-44 101zM528 567h301l-2 525q0 90 -10 143z" />
<glyph unicode="&#xc7;" horiz-adv-x="1267" d="M96 715q0 354 158 548.5t442 194.5q85 0 166.5 -16.5t148.5 -46.5t108.5 -78.5t41.5 -106.5q0 -67 -60.5 -115.5t-168.5 -47.5q-29 315 -232 315q-149 0 -218.5 -159.5t-69.5 -487.5t67.5 -487.5t212.5 -159.5q221 0 264 340q92 13 166 -25.5t74 -118.5 q0 -70 -43.5 -126.5t-116.5 -91.5t-161 -54t-183 -21l-16 -88q106 2 168.5 -38.5t62.5 -114.5q0 -88 -68 -141.5t-190 -53.5q-142 0 -205 72q-4 20 5 51t20 37l7 -7q8 -6 13 -10t16 -11t22 -11t27 -7t34 -3q41 0 62.5 22.5t21.5 61.5q0 42 -32 67.5t-91 18.5l31 161 q-230 34 -357 225.5t-127 512.5z" />
<glyph unicode="&#xc8;" horiz-adv-x="1134" d="M129 1358q52 44 105.5 58t154.5 14h592q37 0 44 -55t-16 -116.5t-59 -78.5q-224 105 -495 114v-479h434q19 -69 0 -151h-432v-529q132 4 296 41.5t248 79.5q35 -22 48.5 -84.5t-4 -117t-60.5 -54.5h-651q-72 0 -118 39t-46 106v947q0 158 -41 266zM252 1694 q17 46 67.5 101.5t88.5 70.5l297 -275q2 -8 -14 -31.5t-29 -29.5z" />
<glyph unicode="&#xc9;" horiz-adv-x="1134" d="M129 1358q52 44 105.5 58t154.5 14h592q37 0 44 -55t-16 -116.5t-59 -78.5q-224 105 -495 114v-479h434q19 -69 0 -151h-432v-529q132 4 296 41.5t248 79.5q35 -22 48.5 -84.5t-4 -117t-60.5 -54.5h-651q-72 0 -118 39t-46 106v947q0 158 -41 266zM438 1591l297 275 q38 -15 88.5 -70.5t67.5 -101.5l-410 -164q-13 6 -29 29.5t-14 31.5z" />
<glyph unicode="&#xca;" horiz-adv-x="1134" d="M129 1358q52 44 105.5 58t154.5 14h592q37 0 44 -55t-16 -116.5t-59 -78.5q-224 105 -495 114v-479h434q19 -69 0 -151h-432v-529q132 4 296 41.5t248 79.5q35 -22 48.5 -84.5t-4 -117t-60.5 -54.5h-651q-72 0 -118 39t-46 106v947q0 158 -41 266zM209 1571l285 274 q19 9 70.5 9.5t70.5 -9.5l285 -274q0 -9 -18.5 -31.5t-31.5 -28.5l-305 162l-307 -162q-12 6 -29.5 28.5t-19.5 31.5z" />
<glyph unicode="&#xcb;" horiz-adv-x="1134" d="M129 1358q52 44 105.5 58t154.5 14h592q37 0 44 -55t-16 -116.5t-59 -78.5q-224 105 -495 114v-479h434q19 -69 0 -151h-432v-529q132 4 296 41.5t248 79.5q35 -22 48.5 -84.5t-4 -117t-60.5 -54.5h-651q-72 0 -118 39t-46 106v947q0 158 -41 266zM209 1694 q0 60 42 102.5t103 42.5q60 0 103 -42.5t43 -102.5q0 -61 -43 -103.5t-103 -42.5q-61 0 -103 42t-42 104zM649 1694q0 60 42.5 102.5t103.5 42.5q60 0 102.5 -42.5t42.5 -102.5q0 -61 -42.5 -103.5t-102.5 -42.5q-61 0 -103.5 42t-42.5 104z" />
<glyph unicode="&#xcc;" horiz-adv-x="626" d="M-37 1694q17 46 67.5 101.5t88.5 70.5l297 -275q2 -8 -14 -31.5t-29 -29.5zM129 1395q66 61 164 61q71 0 117.5 -38.5t46.5 -104.5v-1014q0 -166 41 -266q-70 -64 -164 -64q-72 0 -118 40t-46 106v1013q0 159 -41 267z" />
<glyph unicode="&#xcd;" horiz-adv-x="626" d="M129 1395q66 61 164 61q71 0 117.5 -38.5t46.5 -104.5v-1014q0 -166 41 -266q-70 -64 -164 -64q-72 0 -118 40t-46 106v1013q0 159 -41 267zM150 1591l296 275q38 -15 88.5 -70.5t67.5 -101.5l-409 -164q-13 6 -29 29.5t-14 31.5z" />
<glyph unicode="&#xce;" horiz-adv-x="626" d="M-80 1571l285 274q19 9 70.5 9.5t70.5 -9.5l285 -274q0 -9 -18 -31.5t-31 -28.5l-306 162l-307 -162q-12 6 -29.5 28.5t-19.5 31.5zM129 1395q66 61 164 61q71 0 117.5 -38.5t46.5 -104.5v-1014q0 -166 41 -266q-70 -64 -164 -64q-72 0 -118 40t-46 106v1013 q0 159 -41 267z" />
<glyph unicode="&#xcf;" horiz-adv-x="626" d="M-80 1694q0 60 42.5 102.5t103.5 42.5q60 0 102.5 -42.5t42.5 -102.5q0 -61 -42.5 -103.5t-102.5 -42.5q-62 0 -104 42t-42 104zM129 1395q66 61 164 61q71 0 117.5 -38.5t46.5 -104.5v-1014q0 -166 41 -266q-70 -64 -164 -64q-72 0 -118 40t-46 106v1013q0 159 -41 267z M360 1694q0 60 42.5 102.5t103.5 42.5q60 0 102.5 -42.5t42.5 -102.5q0 -61 -42.5 -103.5t-102.5 -42.5q-62 0 -104 42t-42 104z" />
<glyph unicode="&#xd0;" horiz-adv-x="1347" d="M43 664q-17 53 0 104h115v360v42v52.5t-1.5 51t-4.5 57.5t-9 50.5t-14 50.5q127 18 459 18q316 0 485.5 -181.5t169.5 -533.5q0 -376 -164.5 -555.5t-474.5 -179.5h-278q-77 0 -121.5 38.5t-44.5 104.5l-2 521h-115zM444 98h144q180 0 260 141t80 476q0 333 -81.5 485 t-258.5 152h-144v-584h254q14 -51 0 -104h-254v-566z" />
<glyph unicode="&#xd1;" horiz-adv-x="1439" d="M129 6q41 108 41 293v831q0 173 -14 291q22 27 100 34t96 -13q86 -122 276.5 -368t322.5 -429t173 -278l-73 901q-8 81 27.5 131.5t107.5 54.5q68 3 117 -31q-33 -92 -33 -268l-2 -862q0 -189 14 -287q-22 -25 -89.5 -33t-102.5 11q-335 391 -507 629t-257 405l61 -885 q6 -70 -39.5 -117t-101.5 -47q-64 0 -117 37zM383 1583q10 118 67 169.5t138 51.5q53 0 146 -45t145 -45q34 0 57 13t32.5 26.5t22.5 40.5q42 0 60 -16q-16 -102 -65 -163t-128 -61q-52 0 -144 45.5t-139 45.5q-54 0 -83 -22t-48 -58q-12 -3 -30.5 2.5t-30.5 15.5z" />
<glyph unicode="&#xd2;" horiz-adv-x="1363" d="M96 715q0 369 148 556t438 187t438 -187t148 -556q0 -370 -148 -557t-438 -187t-438 187t-148 557zM360 1694q17 46 67.5 101.5t88.5 70.5l297 -275q2 -8 -14 -31.5t-29 -29.5zM412 715q0 -339 64.5 -493t205.5 -154q142 0 206 153.5t64 493.5t-64 493.5t-206 153.5 q-141 0 -205.5 -154t-64.5 -493z" />
<glyph unicode="&#xd3;" horiz-adv-x="1363" d="M96 715q0 369 148 556t438 187t438 -187t148 -556q0 -370 -148 -557t-438 -187t-438 187t-148 557zM412 715q0 -339 64.5 -493t205.5 -154q142 0 206 153.5t64 493.5t-64 493.5t-206 153.5q-141 0 -205.5 -154t-64.5 -493zM547 1591l297 275q38 -15 88 -70.5t67 -101.5 l-409 -164q-13 6 -29 29.5t-14 31.5z" />
<glyph unicode="&#xd4;" horiz-adv-x="1363" d="M96 715q0 369 148 556t438 187t438 -187t148 -556q0 -370 -148 -557t-438 -187t-438 187t-148 557zM317 1571l285 274q19 9 70.5 9.5t70.5 -9.5l285 -274q0 -9 -18 -31.5t-31 -28.5l-305 162l-307 -162q-12 6 -30 28.5t-20 31.5zM412 715q0 -339 64.5 -493t205.5 -154 q142 0 206 153.5t64 493.5t-64 493.5t-206 153.5q-141 0 -205.5 -154t-64.5 -493z" />
<glyph unicode="&#xd5;" horiz-adv-x="1363" d="M96 715q0 369 148 556t438 187t438 -187t148 -556q0 -370 -148 -557t-438 -187t-438 187t-148 557zM344 1583q10 118 67 169.5t138 51.5q53 0 146 -45t145 -45q34 0 57 13t32.5 26.5t22.5 40.5q42 0 60 -16q-16 -102 -65 -163t-128 -61q-52 0 -143.5 45.5t-138.5 45.5 q-54 0 -83 -22t-48 -58q-12 -3 -31 2.5t-31 15.5zM412 715q0 -339 64.5 -493t205.5 -154q142 0 206 153.5t64 493.5t-64 493.5t-206 153.5q-141 0 -205.5 -154t-64.5 -493z" />
<glyph unicode="&#xd6;" horiz-adv-x="1363" d="M96 715q0 369 148 556t438 187t438 -187t148 -556q0 -370 -148 -557t-438 -187t-438 187t-148 557zM317 1694q0 60 42.5 102.5t103.5 42.5q60 0 102.5 -42.5t42.5 -102.5q0 -61 -42.5 -103.5t-102.5 -42.5q-61 0 -103.5 42t-42.5 104zM412 715q0 -339 64.5 -493 t205.5 -154q142 0 206 153.5t64 493.5t-64 493.5t-206 153.5q-141 0 -205.5 -154t-64.5 -493zM758 1694q0 60 42 102.5t103 42.5q60 0 103 -42.5t43 -102.5q0 -61 -43 -103.5t-103 -42.5q-61 0 -103 42t-42 104z" />
<glyph unicode="&#xd7;" horiz-adv-x="1030" d="M145 442l267 267l-267 266q34 69 105 104l266 -266l266 266q74 -36 103 -104l-267 -266l267 -267q-29 -68 -103 -104l-266 268l-268 -268q-74 36 -103 104z" />
<glyph unicode="&#xd8;" horiz-adv-x="1355" d="M96 715q0 369 148 556t438 187q176 0 305 -72l68 111q60 3 88 -51l-74 -121q199 -184 199 -610q0 -370 -148 -557t-438 -187q-219 0 -358 109l-68 -111q-59 0 -88 51l80 134q-152 190 -152 561zM412 715q0 -152 12 -266l461 765q-64 148 -203 148q-141 0 -205.5 -154 t-64.5 -493zM453 295q31 -117 86.5 -172t142.5 -55q142 0 206 153.5t64 493.5q0 229 -26 368z" />
<glyph unicode="&#xd9;" horiz-adv-x="1384" d="M123 1395q66 61 164 61q70 0 116 -38.5t46 -104.5v-699q0 -289 57.5 -417.5t185.5 -128.5q134 0 197 137t63 409v514q0 159 -41 267q66 61 162 61q70 0 116 -38.5t46 -104.5v-684q0 -658 -543 -658q-263 0 -395.5 160t-132.5 498v499q0 159 -41 267zM371 1694 q17 46 67 101.5t88 70.5l297 -275q2 -8 -14 -31.5t-29 -29.5z" />
<glyph unicode="&#xda;" horiz-adv-x="1384" d="M123 1395q66 61 164 61q70 0 116 -38.5t46 -104.5v-699q0 -289 57.5 -417.5t185.5 -128.5q134 0 197 137t63 409v514q0 159 -41 267q66 61 162 61q70 0 116 -38.5t46 -104.5v-684q0 -658 -543 -658q-263 0 -395.5 160t-132.5 498v499q0 159 -41 267zM557 1591l297 275 q38 -15 88.5 -70.5t67.5 -101.5l-410 -164q-13 6 -29 29.5t-14 31.5z" />
<glyph unicode="&#xdb;" horiz-adv-x="1384" d="M123 1395q66 61 164 61q70 0 116 -38.5t46 -104.5v-699q0 -289 57.5 -417.5t185.5 -128.5q134 0 197 137t63 409v514q0 159 -41 267q66 61 162 61q70 0 116 -38.5t46 -104.5v-684q0 -658 -543 -658q-263 0 -395.5 160t-132.5 498v499q0 159 -41 267zM328 1571l284 274 q19 9 71 9.5t71 -9.5l284 -274q0 -9 -18 -31.5t-31 -28.5l-305 162l-307 -162q-12 6 -29.5 28.5t-19.5 31.5z" />
<glyph unicode="&#xdc;" horiz-adv-x="1384" d="M123 1395q66 61 164 61q70 0 116 -38.5t46 -104.5v-699q0 -289 57.5 -417.5t185.5 -128.5q134 0 197 137t63 409v514q0 159 -41 267q66 61 162 61q70 0 116 -38.5t46 -104.5v-684q0 -658 -543 -658q-263 0 -395.5 160t-132.5 498v499q0 159 -41 267zM328 1694 q0 60 42 102.5t103 42.5q60 0 102.5 -42.5t42.5 -102.5q0 -61 -42.5 -103.5t-102.5 -42.5q-61 0 -103 42t-42 104zM768 1694q0 60 42 102.5t103 42.5q60 0 103 -42.5t43 -102.5q0 -61 -43 -103.5t-103 -42.5q-61 0 -103 42t-42 104z" />
<glyph unicode="&#xdd;" d="M8 1362q29 31 83 59.5t120 28.5q79 0 120 -38.5t79 -121.5l260 -565l237 530q23 50 23 91q0 42 -29 75q74 29 162 29q65 0 97 -34.5t34 -86.5q0 -69 -68 -174l-370 -618v-238q0 -161 41 -266q-23 -23 -66.5 -43.5t-95.5 -20.5q-72 0 -118 40t-46 106v424q-18 25 -49 84 l-309 596q-43 83 -105 143zM522 1591l297 275q38 -15 88.5 -70.5t67.5 -101.5l-410 -164q-13 6 -29 29.5t-14 31.5z" />
<glyph unicode="&#xde;" horiz-adv-x="1200" d="M129 1395q66 61 164 61q71 0 116.5 -38.5t45.5 -104.5v-121h55q307 0 465 -101.5t158 -322.5q0 -230 -164 -355.5t-465 -125.5h-47q0 -153 41 -254q-70 -64 -164 -64q-72 0 -118 40t-46 106v1013q0 159 -41 267zM455 1096l2 -713h32q92 0 157.5 26.5t102.5 77t53.5 114 t16.5 147.5q0 346 -303 346q-3 0 -24 1t-37 1z" />
<glyph unicode="&#xdf;" horiz-adv-x="1263" d="M133 817q-3 345 134 514.5t399 169.5q195 0 295 -85t100 -220q0 -52 -15.5 -100t-39 -81t-51 -66.5t-51 -58.5t-39 -54t-15.5 -56q0 -22 8 -40.5t31 -39.5t35.5 -31t52.5 -36t51 -33q42 -28 70.5 -52t58.5 -60t45 -82t15 -101q0 -66 -23 -123.5t-69 -104.5t-125 -74.5 t-181 -27.5q-151 0 -227 57.5t-76 155.5q0 16 2 31.5t9 35.5t18 34.5t32 24.5t48 10q17 2 41 -2q-7 -40 -7 -70q0 -70 35.5 -113t98.5 -43t98 41.5t35 104.5q0 37 -10.5 66t-33.5 52t-43 37.5t-53 34.5q-98 59 -132 90q-79 72 -79 183q0 54 17.5 102t46 82.5t62.5 66.5 t68 60.5t62.5 57.5t46 65t17.5 75q0 78 -57 136.5t-166 58.5q-63 0 -109.5 -19.5t-74 -63.5t-44 -84.5t-23 -114.5t-8 -118.5t-1.5 -129.5q0 -563 5 -650q6 -98 33 -164q4 -11 11 -26q-27 -21 -72.5 -41.5t-93.5 -20.5q-65 0 -112.5 43.5t-47.5 116.5z" />
<glyph unicode="&#xe0;" horiz-adv-x="1163" d="M70 221q0 71 31 129.5t85.5 99.5t113 69t128.5 48q122 35 285 43v52q0 172 -38 252.5t-132 80.5q-64 0 -100.5 -36.5t-36.5 -114.5q0 -111 71 -152q-49 -49 -149 -49q-97 0 -153 54.5t-56 136.5q0 121 118 187t322 66q231 0 336.5 -103.5t105.5 -340.5v-346 q0 -109 68 -109q36 0 55 27q27 -43 27 -88q0 -62 -53.5 -104.5t-141.5 -42.5q-99 0 -155 62.5t-68 205.5q-57 -122 -157.5 -195t-235.5 -73q-121 0 -195.5 63t-74.5 178zM229 1462q20 17 110 39t136 15l184 -328q-23 -14 -98 -19zM379 291q0 -59 27 -97t81 -32q84 8 159 112 t75 246q-152 0 -229 -45q-52 -29 -82.5 -77t-30.5 -107z" />
<glyph unicode="&#xe1;" horiz-adv-x="1163" d="M70 221q0 71 31 129.5t85.5 99.5t113 69t128.5 48q122 35 285 43v52q0 172 -38 252.5t-132 80.5q-64 0 -100.5 -36.5t-36.5 -114.5q0 -111 71 -152q-49 -49 -149 -49q-97 0 -153 54.5t-56 136.5q0 121 118 187t322 66q231 0 336.5 -103.5t105.5 -340.5v-346 q0 -109 68 -109q36 0 55 27q27 -43 27 -88q0 -62 -53.5 -104.5t-141.5 -42.5q-99 0 -155 62.5t-68 205.5q-57 -122 -157.5 -195t-235.5 -73q-121 0 -195.5 63t-74.5 178zM379 291q0 -59 27 -97t81 -32q84 8 159 112t75 246q-152 0 -229 -45q-52 -29 -82.5 -77t-30.5 -107z M479 1188l185 328q46 7 135.5 -15t109.5 -39l-331 -293q-76 5 -99 19z" />
<glyph unicode="&#xe2;" horiz-adv-x="1163" d="M70 221q0 71 31 129.5t85.5 99.5t113 69t128.5 48q122 35 285 43v52q0 172 -38 252.5t-132 80.5q-64 0 -100.5 -36.5t-36.5 -114.5q0 -111 71 -152q-49 -49 -149 -49q-97 0 -153 54.5t-56 136.5q0 121 118 187t322 66q231 0 336.5 -103.5t105.5 -340.5v-346 q0 -109 68 -109q36 0 55 27q27 -43 27 -88q0 -62 -53.5 -104.5t-141.5 -42.5q-99 0 -155 62.5t-68 205.5q-57 -122 -157.5 -195t-235.5 -73q-121 0 -195.5 63t-74.5 178zM213 1194l268 328q20 8 71 8.5t71 -8.5l268 -328q-1 -7 -33.5 -19t-50.5 -12l-254 168l-260 -168 q-17 0 -48 12t-32 19zM379 291q0 -59 27 -97t81 -32q84 8 159 112t75 246q-152 0 -229 -45q-52 -29 -82.5 -77t-30.5 -107z" />
<glyph unicode="&#xe3;" horiz-adv-x="1163" d="M70 221q0 71 31 129.5t85.5 99.5t113 69t128.5 48q122 35 285 43v52q0 172 -38 252.5t-132 80.5q-64 0 -100.5 -36.5t-36.5 -114.5q0 -111 71 -152q-49 -49 -149 -49q-97 0 -153 54.5t-56 136.5q0 121 118 187t322 66q231 0 336.5 -103.5t105.5 -340.5v-346 q0 -109 68 -109q36 0 55 27q27 -43 27 -88q0 -62 -53.5 -104.5t-141.5 -42.5q-99 0 -155 62.5t-68 205.5q-57 -122 -157.5 -195t-235.5 -73q-121 0 -195.5 63t-74.5 178zM248 1214q8 112 62.5 164t127.5 52q42 0 88.5 -23t92.5 -46.5t86 -23.5q46 0 67.5 20.5t38.5 61.5 q37 0 53 -16q-12 -99 -58 -158t-120 -59q-48 0 -131 45t-127 45q-84 0 -125 -80q-29 -4 -55 18zM379 291q0 -59 27 -97t81 -32q84 8 159 112t75 246q-152 0 -229 -45q-52 -29 -82.5 -77t-30.5 -107z" />
<glyph unicode="&#xe4;" horiz-adv-x="1163" d="M70 221q0 71 31 129.5t85.5 99.5t113 69t128.5 48q122 35 285 43v52q0 172 -38 252.5t-132 80.5q-64 0 -100.5 -36.5t-36.5 -114.5q0 -111 71 -152q-49 -49 -149 -49q-97 0 -153 54.5t-56 136.5q0 121 118 187t322 66q231 0 336.5 -103.5t105.5 -340.5v-346 q0 -109 68 -109q36 0 55 27q27 -43 27 -88q0 -62 -53.5 -104.5t-141.5 -42.5q-99 0 -155 62.5t-68 205.5q-57 -122 -157.5 -195t-235.5 -73q-121 0 -195.5 63t-74.5 178zM240 1325q0 54 37.5 90.5t91.5 36.5q53 0 90 -36.5t37 -90.5q0 -53 -37 -90t-90 -37q-54 0 -91.5 37 t-37.5 90zM379 291q0 -59 27 -97t81 -32q84 8 159 112t75 246q-152 0 -229 -45q-52 -29 -82.5 -77t-30.5 -107zM631 1325q0 54 37 90.5t90 36.5t91 -37t38 -90q0 -52 -38 -89.5t-91 -37.5q-52 0 -89.5 37t-37.5 90z" />
<glyph unicode="&#xe5;" horiz-adv-x="1163" d="M70 221q0 71 31 129.5t85.5 99.5t113 69t128.5 48q122 35 285 43v52q0 172 -38 252.5t-132 80.5q-64 0 -100.5 -36.5t-36.5 -114.5q0 -111 71 -152q-49 -49 -149 -49q-97 0 -153 54.5t-56 136.5q0 121 118 187t322 66q231 0 336.5 -103.5t105.5 -340.5v-346 q0 -109 68 -109q36 0 55 27q27 -43 27 -88q0 -62 -53.5 -104.5t-141.5 -42.5q-99 0 -155 62.5t-68 205.5q-57 -122 -157.5 -195t-235.5 -73q-121 0 -195.5 63t-74.5 178zM358 1327q0 84 58.5 135t152.5 51q91 0 147 -49t56 -129q-1 -84 -59 -134t-152 -50q-91 0 -147 48.5 t-56 127.5zM379 291q0 -59 27 -97t81 -32q84 8 159 112t75 246q-152 0 -229 -45q-52 -29 -82.5 -77t-30.5 -107zM492 1331q0 -106 73 -106q74 0 74 106q0 107 -74 107q-73 0 -73 -107z" />
<glyph unicode="&#xe6;" horiz-adv-x="1740" d="M70 221q0 71 31 129.5t85.5 99.5t113 69t128.5 48q123 35 293 43v52q0 172 -38 252.5t-132 80.5q-145 0 -145 -151q0 -111 71 -152q-49 -49 -149 -49q-97 0 -153 54.5t-56 136.5q0 122 119 187.5t329 65.5q212 0 316 -129q135 129 370 129q120 0 214 -34t151 -105.5 t57 -171.5q0 -149 -120 -231t-320 -82q-129 0 -201 8q14 -175 88.5 -250.5t208.5 -75.5q108 0 182.5 42.5t110.5 111.5q57 -24 18 -119q-40 -100 -142.5 -154.5t-248.5 -54.5q-183 0 -310 86.5t-179 247.5q-54 -145 -163 -235t-259 -90q-121 0 -195.5 63t-74.5 178zM379 291 q0 -59 27 -97t81 -32q85 8 163.5 112t78.5 246q-160 0 -237 -45q-52 -29 -82.5 -77t-30.5 -107zM1030 567q12 -2 39 -2q44 -1 79 2.5t79 18t74 41t50.5 77t20.5 119.5q0 170 -129 170q-101 0 -157 -112.5t-56 -311.5v-2z" />
<glyph unicode="&#xe7;" horiz-adv-x="1050" d="M70 532q0 261 137 408t389 147q184 0 281.5 -74.5t97.5 -187.5q0 -84 -53.5 -133t-139.5 -49q-99 0 -145 49q57 54 57 158q0 143 -121 143q-96 0 -149 -109t-53 -306q0 -433 305 -433q105 0 178 52t96 133q51 -21 27 -127q-28 -102 -122 -163t-232 -69l-17 -88 q106 2 169 -38.5t63 -114.5q0 -88 -68 -141.5t-190 -53.5q-142 0 -205 72q-4 20 4.5 51t19.5 37l7 -7q8 -6 13 -10t16 -11t22 -11t27 -7t34 -3q41 0 62.5 22.5t21.5 61.5q0 42 -32 67.5t-91 18.5l31 159q-213 23 -326.5 167t-113.5 390z" />
<glyph unicode="&#xe8;" horiz-adv-x="1079" d="M70 532q0 261 136 408t388 147q120 0 214 -34t151 -105.5t57 -171.5q0 -149 -120.5 -231t-320.5 -82q-128 0 -200 8q14 -175 88.5 -250.5t208.5 -75.5q108 0 182.5 42.5t110.5 111.5q57 -24 18 -119q-40 -100 -142.5 -154.5t-248.5 -54.5q-241 0 -381.5 148t-140.5 413z M225 1462q20 17 110 39t136 15l184 -328q-23 -14 -98 -19zM371 567q12 -2 39 -2q44 -1 79 2.5t79 18t74 41t50.5 77t20.5 119.5q0 170 -129 170q-101 0 -157 -112.5t-56 -311.5v-2z" />
<glyph unicode="&#xe9;" horiz-adv-x="1079" d="M70 532q0 261 136 408t388 147q120 0 214 -34t151 -105.5t57 -171.5q0 -149 -120.5 -231t-320.5 -82q-128 0 -200 8q14 -175 88.5 -250.5t208.5 -75.5q108 0 182.5 42.5t110.5 111.5q57 -24 18 -119q-40 -100 -142.5 -154.5t-248.5 -54.5q-241 0 -381.5 148t-140.5 413z M371 567q12 -2 39 -2q44 -1 79 2.5t79 18t74 41t50.5 77t20.5 119.5q0 170 -129 170q-101 0 -157 -112.5t-56 -311.5v-2zM475 1188l184 328q46 7 136 -15t110 -39l-332 -293q-75 5 -98 19z" />
<glyph unicode="&#xea;" horiz-adv-x="1079" d="M70 532q0 261 136 408t388 147q120 0 214 -34t151 -105.5t57 -171.5q0 -149 -120.5 -231t-320.5 -82q-128 0 -200 8q14 -175 88.5 -250.5t208.5 -75.5q108 0 182.5 42.5t110.5 111.5q57 -24 18 -119q-40 -100 -142.5 -154.5t-248.5 -54.5q-241 0 -381.5 148t-140.5 413z M209 1194l268 328q20 8 70.5 8.5t70.5 -8.5l269 -328q-1 -7 -33.5 -19t-50.5 -12l-254 168l-260 -168q-17 0 -48 12t-32 19zM371 567q12 -2 39 -2q44 -1 79 2.5t79 18t74 41t50.5 77t20.5 119.5q0 170 -129 170q-101 0 -157 -112.5t-56 -311.5v-2z" />
<glyph unicode="&#xeb;" horiz-adv-x="1079" d="M70 532q0 261 136 408t388 147q120 0 214 -34t151 -105.5t57 -171.5q0 -149 -120.5 -231t-320.5 -82q-128 0 -200 8q14 -175 88.5 -250.5t208.5 -75.5q108 0 182.5 42.5t110.5 111.5q57 -24 18 -119q-40 -100 -142.5 -154.5t-248.5 -54.5q-241 0 -381.5 148t-140.5 413z M236 1325q0 54 37.5 90.5t91.5 36.5q53 0 90 -36.5t37 -90.5q0 -53 -37 -90t-90 -37q-54 0 -91.5 37t-37.5 90zM371 567q12 -2 39 -2q44 -1 79 2.5t79 18t74 41t50.5 77t20.5 119.5q0 170 -129 170q-101 0 -157 -112.5t-56 -311.5v-2zM627 1325q0 54 37 90.5t90 36.5t91 -37 t38 -90q0 -52 -38 -89.5t-91 -37.5q-52 0 -89.5 37t-37.5 90z" />
<glyph unicode="&#xec;" horiz-adv-x="552" d="M-72 1462q20 17 110 39t136 15l184 -328q-23 -14 -98 -19zM104 1028q78 62 158 62q71 0 115.5 -39t44.5 -107l2 -645q0 -166 41 -266q-70 -64 -162 -64q-68 0 -113 40t-45 106v645q0 160 -41 268z" />
<glyph unicode="&#xed;" horiz-adv-x="552" d="M104 1028q78 62 158 62q71 0 115.5 -39t44.5 -107l2 -645q0 -166 41 -266q-70 -64 -162 -64q-68 0 -113 40t-45 106v645q0 160 -41 268zM178 1188l184 328q46 7 136 -15t110 -39l-332 -293q-75 5 -98 19z" />
<glyph unicode="&#xee;" horiz-adv-x="552" d="M-88 1194l268 328q20 8 71 8.5t71 -8.5l268 -328q-1 -7 -33.5 -19t-50.5 -12l-254 168l-260 -168q-17 0 -48 12t-32 19zM104 1028q78 62 158 62q71 0 115.5 -39t44.5 -107l2 -645q0 -166 41 -266q-70 -64 -162 -64q-68 0 -113 40t-45 106v645q0 160 -41 268z" />
<glyph unicode="&#xef;" horiz-adv-x="552" d="M-61 1325q0 54 37.5 90.5t91.5 36.5q53 0 90 -36.5t37 -90.5q0 -53 -37.5 -90t-89.5 -37q-54 0 -91.5 37t-37.5 90zM104 1028q78 62 158 62q71 0 115.5 -39t44.5 -107l2 -645q0 -166 41 -266q-70 -64 -162 -64q-68 0 -113 40t-45 106v645q0 160 -41 268zM330 1325 q0 54 37 90.5t90 36.5t91 -37t38 -90q0 -52 -38 -89.5t-91 -37.5t-90 37t-37 90z" />
<glyph unicode="&#xf0;" horiz-adv-x="1124" d="M70 496q0 247 115.5 393.5t320.5 146.5q167 0 254 -94q-17 135 -137 252l-136 -82q-49 28 -55 88l103 62q-108 65 -201 65q-25 0 -45 -4q3 28 8.5 50.5t19 48t32.5 42t51.5 28t74.5 11.5q164 0 291 -102l145 88q53 -24 56 -90l-123 -74q102 -124 156.5 -312t54.5 -411 q0 -136 -32 -250t-95 -199.5t-162.5 -133.5t-226.5 -48q-106 0 -187.5 25.5t-134.5 71t-86 112.5t-47 144t-14 172zM371 506q0 -202 40 -292.5t142 -90.5q105 0 151 103t46 341q0 76 -7.5 132.5t-26 103t-53 70.5t-85.5 24q-207 0 -207 -391z" />
<glyph unicode="&#xf1;" horiz-adv-x="1204" d="M31 942q0 65 44 105t124 40q94 0 149.5 -60.5t61.5 -180.5q83 241 340 241q168 0 248.5 -102t80.5 -307v-379q6 -175 43 -266q-71 -64 -161 -64q-70 0 -116 40t-46 106v518q-2 163 -32 239t-114 76q-97 0 -154 -120t-57 -347q0 -218 7 -295t40 -155q-67 -62 -159 -62 q-73 0 -119.5 43.5t-46.5 116.5v641q-1 58 -14 83.5t-39 25.5q-39 0 -54 -25q-26 42 -26 88zM326 1214q8 112 62.5 164t127.5 52q50 0 134 -46.5t132 -46.5q46 0 68 21t39 61q37 0 53 -16q-12 -99 -58 -158t-120 -59q-48 0 -131 45t-127 45q-84 0 -125 -80q-29 -4 -55 18z " />
<glyph unicode="&#xf2;" horiz-adv-x="1150" d="M70 528q0 264 133 411.5t372 147.5t372.5 -147.5t133.5 -411.5q0 -263 -133.5 -410t-372.5 -147t-372 147t-133 410zM244 1462q20 17 109.5 39t135.5 15l185 -328q-23 -14 -99 -19zM371 528q0 -233 49.5 -347.5t154.5 -114.5q203 0 203 462q0 465 -203 465 q-105 0 -154.5 -115.5t-49.5 -349.5z" />
<glyph unicode="&#xf3;" horiz-adv-x="1150" d="M70 528q0 264 133 411.5t372 147.5t372.5 -147.5t133.5 -411.5q0 -263 -133.5 -410t-372.5 -147t-372 147t-133 410zM371 528q0 -233 49.5 -347.5t154.5 -114.5q203 0 203 462q0 465 -203 465q-105 0 -154.5 -115.5t-49.5 -349.5zM494 1188l184 328q46 7 136 -15t110 -39 l-332 -293q-75 5 -98 19z" />
<glyph unicode="&#xf4;" horiz-adv-x="1150" d="M70 528q0 264 133 411.5t372 147.5t372.5 -147.5t133.5 -411.5q0 -263 -133.5 -410t-372.5 -147t-372 147t-133 410zM227 1194l269 328q20 8 70.5 8.5t70.5 -8.5l268 -328q-1 -7 -33.5 -19t-50.5 -12l-254 168l-260 -168q-17 0 -48 12t-32 19zM371 528 q0 -233 49.5 -347.5t154.5 -114.5q203 0 203 462q0 465 -203 465q-105 0 -154.5 -115.5t-49.5 -349.5z" />
<glyph unicode="&#xf5;" horiz-adv-x="1150" d="M70 528q0 264 133 411.5t372 147.5t372.5 -147.5t133.5 -411.5q0 -263 -133.5 -410t-372.5 -147t-372 147t-133 410zM262 1214q8 112 62.5 164t128.5 52q50 0 134.5 -46.5t131.5 -46.5q46 0 67.5 20.5t38.5 61.5q38 0 54 -16q-12 -99 -58.5 -158t-120.5 -59 q-48 0 -130.5 45t-127.5 45q-84 0 -125 -80q-29 -4 -55 18zM371 528q0 -233 49.5 -347.5t154.5 -114.5q203 0 203 462q0 465 -203 465q-105 0 -154.5 -115.5t-49.5 -349.5z" />
<glyph unicode="&#xf6;" horiz-adv-x="1150" d="M70 528q0 264 133 411.5t372 147.5t372.5 -147.5t133.5 -411.5q0 -263 -133.5 -410t-372.5 -147t-372 147t-133 410zM254 1325q0 54 37.5 90.5t91.5 36.5q53 0 90 -36.5t37 -90.5q0 -53 -37 -90t-90 -37q-54 0 -91.5 37t-37.5 90zM371 528q0 -233 49.5 -347.5 t154.5 -114.5q203 0 203 462q0 465 -203 465q-105 0 -154.5 -115.5t-49.5 -349.5zM645 1325q0 54 37 90.5t90 36.5t91 -37t38 -90q0 -52 -38 -89.5t-91 -37.5q-52 0 -89.5 37t-37.5 90z" />
<glyph unicode="&#xf7;" horiz-adv-x="1107" d="M145 635q-27 73 0 147h818q27 -74 0 -147h-818zM449 362q0 44 31 75.5t75 31.5q45 0 76 -31t31 -76q0 -46 -30.5 -76t-76.5 -30q-45 0 -75.5 30.5t-30.5 75.5zM449 1055q0 45 30.5 75.5t75.5 30.5q46 0 76.5 -30t30.5 -76q0 -45 -31 -76t-76 -31q-44 0 -75 31.5t-31 75.5 z" />
<glyph unicode="&#xf8;" horiz-adv-x="1150" d="M70 528q0 264 133 411.5t372 147.5q155 0 265 -61l34 55q60 0 91 -51l-41 -65q157 -145 157 -437q0 -263 -133.5 -410t-372.5 -147q-141 0 -249 54l-50 -76q-67 3 -90 53l52 82q-168 145 -168 444zM371 528q0 -130 14 -215l350 549q-49 131 -160 131 q-105 0 -154.5 -115.5t-49.5 -349.5zM422 178q49 -112 153 -112q203 0 203 462q0 101 -10 193z" />
<glyph unicode="&#xf9;" horiz-adv-x="1196" d="M92 1026q73 61 162 61q71 0 116.5 -39t45.5 -106v-516q0 -173 28.5 -250.5t108.5 -77.5q95 0 150 123t55 357q0 216 -7 293t-40 157q74 59 161 59q70 0 116 -43t46 -116l2 -641q0 -107 54 -107q35 0 53 23q26 -42 26 -86q0 -66 -44 -106t-124 -40q-94 0 -149 60.5 t-61 179.5q-83 -242 -334 -242q-167 0 -245.5 96t-78.5 316v377q0 160 -41 268zM227 1462q20 17 110 39t136 15l184 -328q-23 -14 -98 -19z" />
<glyph unicode="&#xfa;" horiz-adv-x="1196" d="M92 1026q73 61 162 61q71 0 116.5 -39t45.5 -106v-516q0 -173 28.5 -250.5t108.5 -77.5q95 0 150 123t55 357q0 216 -7 293t-40 157q74 59 161 59q70 0 116 -43t46 -116l2 -641q0 -107 54 -107q35 0 53 23q26 -42 26 -86q0 -66 -44 -106t-124 -40q-94 0 -149 60.5 t-61 179.5q-83 -242 -334 -242q-167 0 -245.5 96t-78.5 316v377q0 160 -41 268zM477 1188l185 328q46 7 135.5 -15t109.5 -39l-332 -293q-75 5 -98 19z" />
<glyph unicode="&#xfb;" horiz-adv-x="1196" d="M92 1026q73 61 162 61q71 0 116.5 -39t45.5 -106v-516q0 -173 28.5 -250.5t108.5 -77.5q95 0 150 123t55 357q0 216 -7 293t-40 157q74 59 161 59q70 0 116 -43t46 -116l2 -641q0 -107 54 -107q35 0 53 23q26 -42 26 -86q0 -66 -44 -106t-124 -40q-94 0 -149 60.5 t-61 179.5q-83 -242 -334 -242q-167 0 -245.5 96t-78.5 316v377q0 160 -41 268zM211 1194l268 328q20 8 71 8.5t71 -8.5l268 -328q-1 -7 -33.5 -19t-50.5 -12l-254 168l-260 -168q-17 0 -48 12t-32 19z" />
<glyph unicode="&#xfc;" horiz-adv-x="1196" d="M92 1026q73 61 162 61q71 0 116.5 -39t45.5 -106v-516q0 -173 28.5 -250.5t108.5 -77.5q95 0 150 123t55 357q0 216 -7 293t-40 157q74 59 161 59q70 0 116 -43t46 -116l2 -641q0 -107 54 -107q35 0 53 23q26 -42 26 -86q0 -66 -44 -106t-124 -40q-94 0 -149 60.5 t-61 179.5q-83 -242 -334 -242q-167 0 -245.5 96t-78.5 316v377q0 160 -41 268zM238 1325q0 54 37.5 90.5t91.5 36.5q53 0 90 -36.5t37 -90.5q0 -53 -37 -90t-90 -37q-54 0 -91.5 37t-37.5 90zM629 1325q0 54 37 90.5t90 36.5t91 -37t38 -90q0 -52 -38 -89.5t-91 -37.5 q-52 0 -89.5 37t-37.5 90z" />
<glyph unicode="&#xfd;" horiz-adv-x="1144" d="M92 1026q73 61 162 61q71 0 116.5 -39t45.5 -106v-500q0 -84 5.5 -140.5t20 -100t41 -64t66.5 -20.5q97 0 153 119t56 344q0 216 -7 292t-40 156q74 59 161 59q70 0 116 -43t46 -116l2 -819q0 -154 -39.5 -266t-112.5 -177t-167.5 -95t-214.5 -30q-393 0 -393 215 q0 68 53 110t139 42q89 0 127 -47q-59 -42 -59 -105q0 -58 35.5 -94.5t103.5 -36.5q128 0 197 120t69 321q0 49 19 174q-83 -254 -338 -254q-165 0 -243.5 95.5t-78.5 315.5v361q0 160 -41 268zM494 1188l184 328q46 7 136 -15t110 -39l-332 -293q-75 5 -98 19z" />
<glyph unicode="&#xfe;" horiz-adv-x="1167" d="M133 -299v1655q0 67 33 102.5t92 40.5q57 5 109 -15t84 -44q-28 -93 -38 -209.5t-12 -292.5v-94q92 243 328 243q99 0 172 -40.5t115 -113.5t62 -164t20 -202q0 -288 -118.5 -442t-324.5 -154q-183 0 -243 119v-82q0 -233 45 -389q-66 -61 -162 -61q-71 0 -116.5 38.5 t-45.5 104.5zM414 424q0 -161 38.5 -235t129.5 -74q113 0 164 114.5t51 339.5q0 185 -33.5 277t-120.5 92q-58 0 -103.5 -45.5t-72 -121t-40 -164t-13.5 -183.5z" />
<glyph unicode="&#xff;" horiz-adv-x="1144" d="M92 1026q73 61 162 61q71 0 116.5 -39t45.5 -106v-500q0 -84 5.5 -140.5t20 -100t41 -64t66.5 -20.5q97 0 153 119t56 344q0 216 -7 292t-40 156q74 59 161 59q70 0 116 -43t46 -116l2 -819q0 -154 -39.5 -266t-112.5 -177t-167.5 -95t-214.5 -30q-393 0 -393 215 q0 68 53 110t139 42q89 0 127 -47q-59 -42 -59 -105q0 -58 35.5 -94.5t103.5 -36.5q128 0 197 120t69 321q0 49 19 174q-83 -254 -338 -254q-165 0 -243.5 95.5t-78.5 315.5v361q0 160 -41 268zM254 1325q0 54 37.5 90.5t91.5 36.5q53 0 90 -36.5t37 -90.5q0 -53 -37 -90 t-90 -37q-54 0 -91.5 37t-37.5 90zM645 1325q0 54 37 90.5t90 36.5t91 -37t38 -90q0 -52 -38 -89.5t-91 -37.5q-52 0 -89.5 37t-37.5 90z" />
<glyph unicode="&#x152;" horiz-adv-x="1886" d="M96 715q0 369 148 556t438 187q156 0 248 -65q38 22 84.5 29.5t126.5 7.5h592q37 0 44 -55t-16 -116.5t-59 -78.5q-224 105 -496 114v-479h434q19 -69 0 -151h-432v-529q132 4 296.5 41.5t248.5 79.5q35 -22 48.5 -84.5t-4 -117t-60.5 -54.5h-652q-94 0 -139 61 q-96 -90 -264 -90q-290 0 -438 187t-148 557zM412 715q0 -339 64.5 -493t205.5 -154q177 0 240 239v721q-18 185 -74.5 259.5t-165.5 74.5q-141 0 -205.5 -154t-64.5 -493z" />
<glyph unicode="&#x153;" horiz-adv-x="1789" d="M70 528q0 264 133 411.5t372 147.5q112 0 207 -45.5t150 -123.5q52 75 152.5 122t220.5 47q185 0 302 -80.5t117 -230.5q0 -149 -119.5 -231t-320.5 -82q-105 0 -201 8q14 -174 89.5 -250t207.5 -76q110 0 184.5 42.5t110.5 111.5q58 -24 19 -119q-41 -100 -143 -154.5 t-248 -54.5q-116 0 -215 45.5t-152 122.5q-57 -78 -151.5 -123t-209.5 -45q-239 0 -372 147t-133 410zM371 528q0 -233 49.5 -347.5t154.5 -114.5q203 0 203 462q0 465 -203 465q-105 0 -154.5 -115.5t-49.5 -349.5zM1083 569q54 -4 68 -4q119 0 196.5 64t77.5 194 q0 170 -129 170q-100 0 -159.5 -120t-53.5 -304z" />
<glyph unicode="&#x178;" d="M8 1362q29 31 83 59.5t120 28.5q79 0 120 -38.5t79 -121.5l260 -565l237 530q23 50 23 91q0 42 -29 75q74 29 162 29q65 0 97 -34.5t34 -86.5q0 -69 -68 -174l-370 -618v-238q0 -161 41 -266q-23 -23 -66.5 -43.5t-95.5 -20.5q-72 0 -118 40t-46 106v424q-18 25 -49 84 l-309 596q-43 83 -105 143zM293 1694q0 60 42 102.5t103 42.5q60 0 103 -42.5t43 -102.5q0 -61 -43 -103.5t-103 -42.5q-61 0 -103 42t-42 104zM733 1694q0 60 42.5 102.5t103.5 42.5q60 0 102.5 -42.5t42.5 -102.5q0 -61 -42.5 -103.5t-102.5 -42.5q-61 0 -103.5 42 t-42.5 104z" />
<glyph unicode="&#x2c6;" d="M274 1194l269 328q20 8 70.5 8.5t70.5 -8.5l268 -328q-1 -7 -33.5 -19t-50.5 -12l-254 168l-260 -168q-17 0 -48 12t-32 19z" />
<glyph unicode="&#x2dc;" d="M303 1225q8 112 62.5 163.5t128.5 51.5q50 0 134 -46t132 -46q46 0 67.5 20.5t38.5 61.5q37 0 54 -17q-12 -99 -58.5 -158t-120.5 -59q-47 0 -130 45t-128 45q-84 0 -125 -80q-11 -2 -28 4t-27 15z" />
<glyph unicode="&#x2000;" horiz-adv-x="943" />
<glyph unicode="&#x2001;" horiz-adv-x="1886" />
<glyph unicode="&#x2002;" horiz-adv-x="943" />
<glyph unicode="&#x2003;" horiz-adv-x="1886" />
<glyph unicode="&#x2004;" horiz-adv-x="628" />
<glyph unicode="&#x2005;" horiz-adv-x="471" />
<glyph unicode="&#x2006;" horiz-adv-x="314" />
<glyph unicode="&#x2007;" horiz-adv-x="314" />
<glyph unicode="&#x2008;" horiz-adv-x="235" />
<glyph unicode="&#x2009;" horiz-adv-x="377" />
<glyph unicode="&#x200a;" horiz-adv-x="104" />
<glyph unicode="&#x2010;" horiz-adv-x="817" d="M72 449v161h671v-161h-671z" />
<glyph unicode="&#x2011;" horiz-adv-x="817" d="M72 449v161h671v-161h-671z" />
<glyph unicode="&#x2012;" horiz-adv-x="817" d="M72 449v161h671v-161h-671z" />
<glyph unicode="&#x2013;" horiz-adv-x="1052" d="M70 449v161h915v-161h-915z" />
<glyph unicode="&#x2014;" horiz-adv-x="1628" d="M72 449v161h1484v-161h-1484z" />
<glyph unicode="&#x2018;" horiz-adv-x="415" d="M45 1282q0 166 168 320q45 -5 90 -50q-76 -89 -76 -161q0 -31 10.5 -55.5t23 -38t36.5 -25.5t35 -15t35 -10q0 -66 -46.5 -113t-115.5 -47q-68 0 -114 48t-46 147z" />
<glyph unicode="&#x2019;" horiz-adv-x="417" d="M49 1411q0 66 46.5 113t115.5 47q68 0 114 -48t46 -147q0 -165 -168 -319q-46 5 -90 49q75 88 75 162q0 31 -10.5 55.5t-22.5 37.5t-36.5 25t-34.5 15t-35 10z" />
<glyph unicode="&#x201a;" horiz-adv-x="417" d="M49 127q0 66 46.5 113t115.5 47q68 0 114 -48t46 -147q0 -165 -168 -319q-46 5 -90 49q75 88 75 162q0 31 -10.5 55.5t-22.5 37.5t-36.5 25t-34.5 15t-35 10z" />
<glyph unicode="&#x201c;" horiz-adv-x="800" d="M45 1282q0 166 168 320q45 -5 90 -50q-76 -89 -76 -161q0 -31 10.5 -55.5t23 -38t36.5 -25.5t35 -15t35 -10q0 -66 -46.5 -113t-115.5 -47q-68 0 -114 48t-46 147zM432 1280q0 165 168 319q46 -5 90 -49q-76 -89 -76 -161q0 -31 10.5 -55.5t23 -38t36.5 -25.5t35 -15 t35 -10q0 -66 -46.5 -113t-115.5 -47q-68 0 -114 48t-46 147z" />
<glyph unicode="&#x201d;" horiz-adv-x="802" d="M51 1413q0 66 46.5 113t115.5 47q68 0 114 -48t46 -147q0 -165 -168 -319q-46 5 -90 49q75 88 75 162q0 31 -10.5 55.5t-22.5 37.5t-36.5 25t-34.5 15t-35 10zM436 1411q0 66 46.5 113t115.5 47q68 0 114 -48t46 -147q0 -165 -168 -319q-46 5 -90 49q75 88 75 162 q0 31 -10.5 55.5t-22.5 37.5t-36.5 25t-34.5 15t-35 10z" />
<glyph unicode="&#x201e;" horiz-adv-x="802" d="M49 129q0 66 46.5 113t115.5 47q68 0 114 -48t46 -147q0 -165 -168 -319q-46 5 -90 49q75 88 75 162q0 31 -10.5 55.5t-22.5 37.5t-36.5 25t-34.5 15t-35 10zM434 129q0 66 46.5 113t115.5 47q68 0 114 -48t46 -147q0 -165 -168 -319q-46 5 -90 49q75 88 75 162 q0 31 -10.5 55.5t-22.5 37.5t-36.5 25t-34.5 15t-35 10z" />
<glyph unicode="&#x2022;" horiz-adv-x="800" d="M164 573q0 98 69.5 167t167.5 69q97 0 166.5 -69t69.5 -167t-69.5 -167.5t-166.5 -69.5q-98 0 -167.5 69.5t-69.5 167.5z" />
<glyph unicode="&#x2026;" horiz-adv-x="808" d="M164 129q0 67 46 113.5t114 46.5q20 0 41 -6q18 6 41 6q19 0 40 -6q18 6 41 6q66 0 112 -46.5t46 -113.5q0 -66 -46 -112t-112 -46q-17 0 -41 4q-28 -4 -40 -4q-17 0 -41 4q-28 -4 -41 -4q-67 0 -113.5 46t-46.5 112z" />
<glyph unicode="&#x202f;" horiz-adv-x="377" />
<glyph unicode="&#x2039;" horiz-adv-x="946" d="M36.5 488.5q0.5 64.5 6.5 78.5l750 439l69 -103l-543 -405v-11l541 -383l-69 -96l-748 400q-7 16 -6.5 80.5z" />
<glyph unicode="&#x203a;" horiz-adv-x="946" d="M84 903l70 103l749 -439q6 -14 6.5 -78.5t-6.5 -80.5l-747 -400l-70 96l541 383v11z" />
<glyph unicode="&#x205f;" horiz-adv-x="471" />
<glyph unicode="&#x20ac;" horiz-adv-x="1312" d="M33 514q-35 66 0 131h151q-2 23 -2 70v51h-149q-34 64 0 131h162q38 270 190.5 415.5t396.5 145.5q215 0 336 -80q46 -28 67.5 -73.5t15 -93t-54 -92t-130.5 -66.5q-48 309 -230 309q-127 0 -196 -115t-86 -350h434q13 -43 -4.5 -81t-46.5 -50h-389v-51v-70h342 q13 -43 -5 -81t-47 -50h-282q19 -226 85 -336t187 -110q220 0 266 383q76 19 137 -28t60 -144q-2 -99 -74.5 -171t-178 -104.5t-226.5 -32.5q-232 0 -378.5 141t-186.5 402h-164z" />
<glyph unicode="&#x2122;" horiz-adv-x="1499" d="M22 1394.5q4 37.5 25 37.5h520q20 0 24.5 -37.5t-9 -80t-35.5 -54.5q-76 64 -156 98v-391q0 -72 25 -146q-12 -14 -40 -27.5t-59 -13.5q-43 0 -70.5 26t-27.5 68v482q-74 -33 -153 -96q-22 12 -35 54.5t-9 80zM674 1423q20 23 121 23q59 0 90 -31q93 -262 157 -430 q90 253 148 445q49 16 110 16q37 0 70.5 -10t36.5 -21v-448q0 -82 25 -146q-12 -14 -39 -27.5t-58 -13.5q-41 0 -68.5 26t-27.5 68v361l-145 -404q-90 -34 -158 -8q-92 174 -166 424v-282q0 -90 25 -164q-23 -23 -58 -23q-57 0 -57 72v416q0 106 -6 157z" />
<glyph unicode="&#x25fc;" horiz-adv-x="1085" d="M0 0v1085h1085v-1085h-1085z" />
</font>
</defs>
</svg>
